<svg width="32" height="32" viewBox="0 0 32 32" fill="none" xmlns="http://www.w3.org/2000/svg">
<path fill-rule="evenodd" clip-rule="evenodd" d="M1.33331 14.6667C1.33331 22.7668 7.8998 29.3333 16 29.3333C24.1002 29.3333 30.6666 22.7668 30.6666 14.6667C30.6666 6.56649 24.1002 0 16 0C7.8998 0 1.33331 6.56649 1.33331 14.6667ZM28 14.6667C28 21.2941 22.6274 26.6667 16 26.6667C9.37256 26.6667 3.99998 21.2941 3.99998 14.6667C3.99998 8.03925 9.37256 2.66667 16 2.66667C22.6274 2.66667 28 8.03925 28 14.6667ZM14.6666 9.33333V12H17.3333V9.33333C17.3333 8.59695 16.7364 8 16 8C15.2636 8 14.6666 8.59695 14.6666 9.33333ZM20 12C21.4727 12 22.6666 13.1939 22.6666 14.6667V20C22.6666 21.4728 21.4727 22.6667 20 22.6667H12C10.5272 22.6667 9.33331 21.4728 9.33331 20V14.6667C9.33331 13.1939 10.5272 12 12 12V9.33333C12 7.12419 13.7908 5.33333 16 5.33333C18.2091 5.33333 20 7.12419 20 9.33333V12ZM12 14.6667V20H20V14.6667H12ZM14.6666 17.3333C14.6666 18.0697 15.2636 18.6667 16 18.6667C16.7364 18.6667 17.3333 18.0697 17.3333 17.3333C17.3333 16.597 16.7364 16 16 16C15.2636 16 14.6666 16.597 14.6666 17.3333Z" fill="#EDE8F5"/>
</svg>
