<svg width="37" height="37" viewBox="0 0 37 37" fill="none" xmlns="http://www.w3.org/2000/svg">
<path fill-rule="evenodd" clip-rule="evenodd" d="M18.3333 36.6667C8.20811 36.6667 0 28.4586 0 18.3333C0 8.20811 8.20811 0 18.3333 0C28.4586 0 36.6667 8.20811 36.6667 18.3333C36.6667 28.4586 28.4586 36.6667 18.3333 36.6667ZM30.6658 26.8744C32.3477 24.4505 33.3333 21.507 33.3333 18.3333C33.3333 10.0491 26.6176 3.33333 18.3333 3.33333C10.0491 3.33333 3.33333 10.0491 3.33333 18.3333C3.33333 21.507 4.31897 24.4505 6.00084 26.8744C7.87659 24.3968 12.2843 23.3333 18.3333 23.3333C24.3823 23.3333 28.7901 24.3968 30.6658 26.8744ZM28.2745 29.5663C27.7867 27.8122 24.2823 26.6667 18.3333 26.6667C12.3844 26.6667 8.88 27.8122 8.3922 29.5663C11.0388 31.9103 14.5199 33.3333 18.3333 33.3333C22.1468 33.3333 25.6278 31.9103 28.2745 29.5663ZM18.3333 8.33333C14.2985 8.33333 11.6667 11.2596 11.6667 15C11.6667 20.7123 14.6014 23.3333 18.3333 23.3333C22.0301 23.3333 25 20.7994 25 15.3333C25 11.536 22.357 8.33333 18.3333 8.33333ZM15 15C15 18.7821 16.3637 20 18.3333 20C20.2962 20 21.6667 18.8307 21.6667 15.3333C21.6667 13.2507 20.3594 11.6667 18.3333 11.6667C16.2229 11.6667 15 13.0264 15 15Z" fill="black"/>
</svg>
