<svg width="321" height="251" viewBox="0 0 321 251" fill="none" xmlns="http://www.w3.org/2000/svg">
<path d="M186.426 69.7705L180.007 66.3366L180.487 66.0793L186.907 69.5137L186.426 69.7705Z" fill="#CBCBCB"/>
<path d="M180.827 69.7705L180.347 69.5137L186.766 66.0793L187.246 66.3366L180.827 69.7705Z" fill="#CBCBCB"/>
<path d="M133.049 43.1526L132.739 43.7615L134.552 44.6973L134.862 44.0885L133.049 43.1526Z" fill="#CBCBCB"/>
<path d="M170.647 63.3245L167.037 61.4618L167.347 60.8529L170.956 62.7156L170.647 63.3245ZM163.428 59.5991L159.818 57.7362L160.128 57.1274L163.738 58.9902L163.428 59.5991ZM156.209 55.8735L152.6 54.0109L152.909 53.402L156.519 55.2647L156.209 55.8735ZM148.99 52.1481L145.381 50.2854L145.69 49.6766L149.3 51.5392L148.99 52.1481ZM141.771 48.4227L138.162 46.56L138.472 45.9512L142.081 47.8139L141.771 48.4227Z" fill="#CBCBCB"/>
<path d="M174.566 64.5782L174.256 65.187L176.07 66.1229L176.379 65.514L174.566 64.5782Z" fill="#CBCBCB"/>
<path d="M37.6434 88.9458C37.6434 89.1595 37.6365 89.3713 37.6227 89.5814C37.5456 90.7931 37.2417 91.9792 36.7269 93.0771C36.7229 93.0865 36.7182 93.0952 36.7143 93.104C36.6903 93.1549 36.6657 93.2058 36.6404 93.256C36.4873 93.5665 36.3175 93.8684 36.1316 94.1602C35.2828 95.5 34.1194 96.6086 32.7441 97.388C31.3688 98.1674 29.8241 98.5937 28.2465 98.6291L28.3416 104.138L29.582 103.48L29.8034 103.904L28.3509 104.674L28.5285 114.905L28.5305 115.041L27.5714 115.256L27.5734 115.119L27.8754 98.6298C26.6055 98.6115 25.3519 98.3392 24.1873 97.8289C23.0228 97.3187 21.9705 96.5805 21.0916 95.6572C21.0311 95.5943 20.9712 95.5293 20.9127 95.465L20.906 95.4576C20.1737 94.6533 19.5814 93.7303 19.1542 92.7275C19.1635 92.7382 19.1735 92.7483 19.1828 92.759C18.2172 90.485 18.1517 87.9252 18.9998 85.6042C19.8478 83.2831 21.5451 81.3766 23.7439 80.2752C23.7771 80.2585 23.8111 80.2424 23.8443 80.2256C26.0193 79.1706 28.5086 78.977 30.8186 79.6832C33.1287 80.3895 35.091 81.9441 36.3165 84.0388C36.3751 84.138 36.4316 84.2391 36.4861 84.3409C37.2474 85.7546 37.6452 87.3376 37.6434 88.9458Z" fill="#E5E5E5"/>
<path d="M36.3487 93.1093C43.3107 93.1093 48.9546 87.4254 48.9546 80.4139C48.9546 73.4024 43.3107 67.7185 36.3487 67.7185C29.3867 67.7185 23.7429 73.4024 23.7429 80.4139C23.7429 87.4254 29.3867 93.1093 36.3487 93.1093Z" fill="#E5E5E5"/>
<path opacity="0.2" d="M27.041 71.9343C25.8651 74.7044 25.7056 77.8052 26.5909 80.6828C27.4763 83.5604 29.3487 86.0272 31.8738 87.6424C34.3988 89.2576 37.4118 89.9159 40.3744 89.4998C43.337 89.0837 46.0562 87.6201 48.046 85.3708C47.3277 87.0631 46.2527 88.578 44.8954 89.8104C43.538 91.0428 41.9309 91.9633 40.1852 92.508C38.4396 93.0528 36.5972 93.2088 34.7858 92.9653C32.9743 92.7218 31.2371 92.0846 29.6945 91.0978C28.1518 90.111 26.8407 88.7983 25.8518 87.2505C24.8629 85.7027 24.22 83.9569 23.9676 82.134C23.7152 80.3112 23.8594 78.4548 24.39 76.6936C24.9207 74.9325 25.8252 73.3085 27.041 71.9343Z" fill="#252525"/>
<path d="M37.0307 115.781L35.7432 115.417L35.7459 115.278L36.1317 94.1604L36.151 93.1074L36.1514 93.0767L36.2189 89.3871L36.3165 84.0396V84.0388L36.3829 80.4141H36.4184L36.4863 84.3411L36.5746 89.4524L36.6379 93.0791V93.1059L36.6406 93.2555V93.2562L36.7629 100.326L36.7756 101.028L37.0283 115.64L37.0307 115.781Z" fill="#252525"/>
<path d="M38.3883 99.4637L36.3045 100.569L36.5949 101.124L38.6787 100.019L38.3883 99.4637Z" fill="#252525"/>
<path d="M199.758 39.3271C183.847 38.3798 167.888 38.6268 152.014 40.0662C144.363 40.7627 136.59 41.515 129.08 43.1959C123.031 44.5497 116.011 46.8379 112.242 52.1675C111.453 53.2413 110.921 54.4845 110.688 55.7998C110.455 57.1152 110.527 58.4669 110.899 59.7494C111.798 62.7876 114.034 65.3165 116.414 67.2973C121.894 71.8562 128.692 74.509 134.765 78.1309C145.853 84.7438 156.001 93.657 162.515 104.98C165.381 109.962 168.107 116.587 164.916 122.077C161.789 127.456 154.809 129.309 149.117 130.183C141.983 131.278 134.634 130.981 127.469 130.367C119.615 129.63 111.804 128.478 104.07 126.916C88.9175 123.986 73.903 120.258 58.5401 118.563C50.837 117.651 43.069 117.425 35.3264 117.887C28.3339 118.362 21.2816 119.476 14.7127 122.015C9.65082 123.972 4.2551 126.932 1.52087 131.87C-1.11481 136.629 -0.086813 142.117 2.78311 146.508C6.23622 151.791 11.6209 155.412 17.2191 158.058C23.5932 161.071 30.4109 163.024 37.2373 164.684C40.6995 165.527 44.1804 166.288 47.6616 167.046C48.3878 167.204 48.6981 166.08 47.9693 165.922C40.9491 164.394 33.9087 162.861 27.0628 160.65C20.7277 158.603 14.2446 155.982 9.05676 151.684C4.85977 148.208 0.86929 143.13 1.11701 137.357C1.36674 131.536 6.21556 127.473 10.9681 124.971C16.9074 121.845 23.6552 120.323 30.2674 119.527C37.8384 118.677 45.4736 118.573 53.0647 119.215C68.3914 120.389 83.3757 123.905 98.403 126.972C113.002 129.952 128.056 132.711 143.017 131.946C148.947 131.643 155.301 130.788 160.536 127.773C162.934 126.393 165.095 124.447 166.314 121.914C167.411 119.504 167.758 116.816 167.309 114.203C166.46 108.464 163.076 103.143 159.699 98.5721C155.997 93.6142 151.703 89.1345 146.913 85.234C141.657 80.9738 135.99 77.2556 129.996 74.1352C126.818 72.4499 123.594 70.8293 120.565 68.8774C117.661 67.0058 114.796 64.7538 113.023 61.7156C111.489 59.0877 111.207 56.0885 112.805 53.4233C114.421 50.7277 117.205 48.8476 119.951 47.4737C126.566 44.1636 134.256 43.2776 141.494 42.3696C157.034 40.4269 172.695 39.6405 188.35 40.0168C192.155 40.1069 195.958 40.2656 199.758 40.4927C200.502 40.5368 200.499 39.371 199.758 39.3271V39.3271Z" fill="#252525"/>
<path d="M189.664 1.96298L192.067 0.0271115C190.2 -0.18034 189.433 0.845145 189.119 1.65682C187.661 1.04685 186.073 1.84625 186.073 1.84625L190.881 3.60436C190.639 2.9518 190.217 2.38242 189.664 1.96298Z" fill="#252525"/>
<path d="M178 8.09164L180.404 6.15577C178.537 5.94832 177.77 6.9738 177.456 7.78548C175.997 7.17551 174.409 7.97491 174.409 7.97491L179.218 9.73302C178.975 9.08046 178.553 8.51108 178 8.09164Z" fill="#252525"/>
<path d="M189.664 17.7952L192.067 15.8594C190.2 15.6519 189.433 16.6774 189.119 17.4891C187.661 16.8791 186.073 17.6785 186.073 17.6785L190.881 19.4366C190.639 18.7841 190.217 18.2147 189.664 17.7952Z" fill="#252525"/>
<path d="M153.634 20.6634C157.633 20.6634 160.875 17.3985 160.875 13.371C160.875 9.34353 157.633 6.07861 153.634 6.07861C149.635 6.07861 146.393 9.34353 146.393 13.371C146.393 17.3985 149.635 20.6634 153.634 20.6634Z" fill="#7091E6"/>
<path d="M176.341 35.8423H140.819C140.774 35.8429 140.73 35.8393 140.686 35.8317L157.487 6.52602C157.589 6.34346 157.738 6.19159 157.918 6.08592C158.097 5.98024 158.302 5.92456 158.51 5.92456C158.718 5.92456 158.923 5.98024 159.103 6.08592C159.283 6.19159 159.431 6.34346 159.534 6.52602L170.809 26.1917L171.349 27.1326L176.341 35.8423Z" fill="#3D52A0"/>
<path d="M196.118 35.8426H165.395L171.348 27.1336L171.776 26.5061L179.534 15.1567C179.671 14.9831 179.843 14.8404 180.039 14.7381C180.234 14.6358 180.449 14.5761 180.669 14.5629C180.889 14.5496 181.109 14.5832 181.315 14.6614C181.521 14.7395 181.709 14.8605 181.866 15.0165C181.906 15.0608 181.943 15.1076 181.977 15.1567L196.118 35.8426Z" fill="#3D52A0"/>
<path d="M145.438 103.056C148.805 104.75 150.855 106.989 150.855 109.444C150.855 114.733 141.352 119.02 129.63 119.02C124.534 119.02 119.858 118.209 116.199 116.858C120.085 118.815 125.727 120.046 132.007 120.046C143.73 120.046 153.232 115.759 153.232 110.47C153.232 107.481 150.195 104.812 145.438 103.056Z" fill="#F1F1F1"/>
<path d="M152.928 106.688C156.727 108.601 159.04 111.127 159.04 113.897C159.04 119.865 148.317 124.703 135.09 124.703C129.339 124.703 124.063 123.788 119.935 122.263C124.32 124.471 130.685 125.861 137.773 125.861C151 125.861 161.722 121.023 161.722 115.055C161.722 111.682 158.295 108.67 152.928 106.688Z" fill="#F1F1F1"/>
<path d="M142.572 104.656C144.944 105.85 146.388 107.427 146.388 109.157C146.388 112.883 139.694 115.903 131.435 115.903C128.217 115.945 125.017 115.43 121.972 114.38C124.71 115.758 128.685 116.626 133.11 116.626C141.368 116.626 148.063 113.606 148.063 109.879C148.063 107.773 145.923 105.893 142.572 104.656Z" fill="#F1F1F1"/>
<path d="M109.242 103.972C109.242 103.972 109.764 111.645 124.706 111.645C139.648 111.645 144.11 103.972 144.11 103.972H109.242Z" fill="#252525"/>
<path d="M130.451 83.8393C128.294 82.1889 125.587 81.443 122.896 81.7579C125.301 82.3417 127.424 83.76 128.894 85.7636C130.364 87.7672 131.087 90.2283 130.935 92.7148C130.783 95.2013 129.766 97.5544 128.063 99.3612C126.36 101.168 124.079 102.313 121.621 102.595C123.972 103.167 126.447 102.906 128.629 101.856C130.811 100.806 132.568 99.0318 133.604 96.831C134.641 94.6302 134.893 92.1373 134.318 89.7713C133.744 87.4054 132.379 85.3106 130.451 83.8393Z" fill="#252525"/>
<path d="M125.555 80.373H124.536V104.796H125.555V80.373Z" fill="#252525"/>
<path d="M192.51 62.2265L192.505 62.217L192.491 61.6205L195.682 56.9535L192.495 61.1739L192.483 61.3L192.374 56.5299L195.131 51.6913L192.366 55.6919L192.395 45.8093L192.395 45.7764L192.394 45.8087L192.211 53.5975L189.699 50.4337L192.203 54.2685L192.148 58.5354L189.836 54.3711L192.14 59.1627L192.109 61.5352L192.024 68.1083L192.018 68.5995C192.231 68.6011 192.442 68.5976 192.651 68.5888L192.506 62.2752L192.51 62.2265Z" fill="#CBCBCB"/>
<path d="M177.228 64.2787L177.222 64.2693L177.209 63.6727L180.4 59.0058L177.213 63.2262L177.201 63.3523L177.092 58.5821L179.849 53.7436L177.084 57.7441L177.113 47.8615L177.113 47.8286L177.112 47.861L176.929 55.6498L174.416 52.486L176.921 56.3208L176.866 60.5876L174.554 56.4234L176.857 61.2149L176.827 63.5875L176.742 70.1606L176.736 70.6517C176.949 70.6534 177.16 70.6498 177.369 70.641L177.224 64.3274L177.228 64.2787Z" fill="#CBCBCB"/>
<path d="M184.699 57.7804L184.694 57.771L184.68 57.1744L187.872 52.5075L184.684 56.7279L184.672 56.854L184.563 52.0838L187.32 47.2453L184.555 51.2458L184.584 41.3632L184.584 41.3303L184.583 41.3627L184.4 49.1515L181.888 45.9877L184.392 49.8225L184.337 54.0893L182.025 49.925L184.329 54.7166L184.298 57.0891L184.214 63.6623L184.208 64.1534C184.42 64.1551 184.631 64.1515 184.84 64.1427L184.695 57.8291L184.699 57.7804Z" fill="#CBCBCB"/>
<path d="M58.484 171.348C60.7347 171.348 62.5592 169.511 62.5592 167.244C62.5592 164.977 60.7347 163.14 58.484 163.14C56.2333 163.14 54.4088 164.977 54.4088 167.244C54.4088 169.511 56.2333 171.348 58.484 171.348Z" fill="#3D52A0"/>
<path d="M34.48 162L28.48 145.08H32.344L36.64 158.136H35.608L40.288 145.08H43.024L47.32 158.136H46.36L50.92 145.08H54.544L48.496 162H45.448L41.296 149.976H41.848L37.552 162H34.48ZM61.0846 162.264C58.9726 162.264 57.3246 161.696 56.1406 160.56C54.9566 159.424 54.3646 157.88 54.3646 155.928C54.3646 154.664 54.6126 153.56 55.1086 152.616C55.6206 151.672 56.3246 150.936 57.2206 150.408C58.1326 149.864 59.1966 149.592 60.4126 149.592C61.6126 149.592 62.6126 149.848 63.4126 150.36C64.2286 150.872 64.8366 151.592 65.2366 152.52C65.6526 153.432 65.8606 154.496 65.8606 155.712V156.552H57.3406V154.752H63.2206L62.8126 155.088C62.8126 154.08 62.6046 153.32 62.1886 152.808C61.7886 152.28 61.2046 152.016 60.4366 152.016C59.5886 152.016 58.9326 152.328 58.4686 152.952C58.0206 153.576 57.7966 154.472 57.7966 155.64V156.024C57.7966 157.208 58.0846 158.088 58.6606 158.664C59.2526 159.24 60.1006 159.528 61.2046 159.528C61.8606 159.528 62.4766 159.448 63.0526 159.288C63.6446 159.112 64.2046 158.84 64.7326 158.472L65.7406 160.872C65.1326 161.32 64.4286 161.664 63.6286 161.904C62.8446 162.144 61.9966 162.264 61.0846 162.264ZM68.1599 162V144.336H71.7839V162H68.1599ZM80.6018 162.264C79.3058 162.264 78.1698 162.008 77.1938 161.496C76.2178 160.984 75.4658 160.248 74.9378 159.288C74.4098 158.328 74.1458 157.192 74.1458 155.88C74.1458 154.552 74.4098 153.424 74.9378 152.496C75.4818 151.552 76.2338 150.832 77.1938 150.336C78.1698 149.84 79.3058 149.592 80.6018 149.592C81.4178 149.592 82.2098 149.712 82.9778 149.952C83.7618 150.192 84.4018 150.528 84.8978 150.96L83.8418 153.456C83.4418 153.088 82.9778 152.816 82.4498 152.64C81.9378 152.448 81.4418 152.352 80.9618 152.352C79.9858 152.352 79.2258 152.656 78.6818 153.264C78.1378 153.872 77.8658 154.752 77.8658 155.904C77.8658 157.056 78.1378 157.936 78.6818 158.544C79.2258 159.152 79.9858 159.456 80.9618 159.456C81.4258 159.456 81.9138 159.368 82.4258 159.192C82.9538 159.016 83.4258 158.752 83.8418 158.4L84.8978 160.872C84.3858 161.304 83.7378 161.648 82.9538 161.904C82.1858 162.144 81.4018 162.264 80.6018 162.264ZM92.4824 162.264C91.1864 162.264 90.0584 162.008 89.0984 161.496C88.1544 160.968 87.4184 160.232 86.8904 159.288C86.3784 158.344 86.1224 157.216 86.1224 155.904C86.1224 154.608 86.3784 153.488 86.8904 152.544C87.4184 151.6 88.1544 150.872 89.0984 150.36C90.0584 149.848 91.1864 149.592 92.4824 149.592C93.7784 149.592 94.9064 149.848 95.8664 150.36C96.8264 150.872 97.5624 151.6 98.0744 152.544C98.6024 153.488 98.8664 154.608 98.8664 155.904C98.8664 157.216 98.6024 158.344 98.0744 159.288C97.5624 160.232 96.8264 160.968 95.8664 161.496C94.9064 162.008 93.7784 162.264 92.4824 162.264ZM92.4824 159.528C93.3144 159.528 93.9704 159.232 94.4504 158.64C94.9464 158.048 95.1944 157.136 95.1944 155.904C95.1944 154.672 94.9464 153.768 94.4504 153.192C93.9704 152.616 93.3144 152.328 92.4824 152.328C91.6504 152.328 90.9864 152.616 90.4904 153.192C90.0104 153.768 89.7704 154.672 89.7704 155.904C89.7704 157.136 90.0104 158.048 90.4904 158.64C90.9864 159.232 91.6504 159.528 92.4824 159.528ZM101.207 162V153C101.207 152.488 101.191 151.968 101.159 151.44C101.127 150.896 101.079 150.36 101.015 149.832H104.495L104.759 152.088H104.471C104.823 151.32 105.343 150.712 106.031 150.264C106.719 149.816 107.535 149.592 108.479 149.592C109.407 149.592 110.183 149.816 110.807 150.264C111.447 150.696 111.903 151.376 112.175 152.304H111.791C112.143 151.472 112.703 150.816 113.471 150.336C114.239 149.84 115.111 149.592 116.087 149.592C117.463 149.592 118.487 150 119.159 150.816C119.831 151.632 120.167 152.912 120.167 154.656V162H116.543V154.776C116.543 153.928 116.407 153.32 116.135 152.952C115.863 152.584 115.423 152.4 114.815 152.4C114.095 152.4 113.527 152.656 113.111 153.168C112.695 153.68 112.487 154.384 112.487 155.28V162H108.863V154.776C108.863 153.928 108.727 153.32 108.455 152.952C108.183 152.584 107.743 152.4 107.135 152.4C106.415 152.4 105.847 152.656 105.431 153.168C105.031 153.68 104.831 154.384 104.831 155.28V162H101.207ZM129.194 162.264C127.082 162.264 125.434 161.696 124.25 160.56C123.066 159.424 122.474 157.88 122.474 155.928C122.474 154.664 122.722 153.56 123.218 152.616C123.73 151.672 124.434 150.936 125.33 150.408C126.242 149.864 127.306 149.592 128.522 149.592C129.722 149.592 130.722 149.848 131.522 150.36C132.338 150.872 132.946 151.592 133.346 152.52C133.762 153.432 133.97 154.496 133.97 155.712V156.552H125.45V154.752H131.33L130.922 155.088C130.922 154.08 130.714 153.32 130.298 152.808C129.898 152.28 129.314 152.016 128.546 152.016C127.698 152.016 127.042 152.328 126.578 152.952C126.13 153.576 125.906 154.472 125.906 155.64V156.024C125.906 157.208 126.194 158.088 126.77 158.664C127.362 159.24 128.21 159.528 129.314 159.528C129.97 159.528 130.586 159.448 131.162 159.288C131.754 159.112 132.314 158.84 132.842 158.472L133.85 160.872C133.242 161.32 132.538 161.664 131.738 161.904C130.954 162.144 130.106 162.264 129.194 162.264ZM150.483 162.264C149.507 162.264 148.635 162.024 147.867 161.544C147.115 161.064 146.611 160.424 146.355 159.624H146.619V162H143.043V144.336H146.667V152.112H146.355C146.627 151.344 147.139 150.736 147.891 150.288C148.659 149.824 149.523 149.592 150.483 149.592C151.555 149.592 152.491 149.848 153.291 150.36C154.091 150.872 154.715 151.6 155.163 152.544C155.627 153.488 155.859 154.624 155.859 155.952C155.859 157.264 155.627 158.392 155.163 159.336C154.715 160.28 154.083 161.008 153.267 161.52C152.467 162.016 151.539 162.264 150.483 162.264ZM149.403 159.528C150.219 159.528 150.891 159.24 151.419 158.664C151.947 158.088 152.211 157.184 152.211 155.952C152.211 154.72 151.947 153.808 151.419 153.216C150.891 152.624 150.219 152.328 149.403 152.328C148.571 152.328 147.891 152.616 147.363 153.192C146.851 153.768 146.595 154.672 146.595 155.904C146.595 157.136 146.851 158.048 147.363 158.64C147.891 159.232 148.571 159.528 149.403 159.528ZM162.935 162.264C161.879 162.264 160.951 162.008 160.151 161.496C159.351 160.984 158.727 160.256 158.279 159.312C157.831 158.368 157.607 157.232 157.607 155.904C157.607 154.592 157.831 153.464 158.279 152.52C158.727 151.576 159.351 150.856 160.151 150.36C160.951 149.848 161.879 149.592 162.935 149.592C163.911 149.592 164.783 149.832 165.551 150.312C166.335 150.776 166.847 151.408 167.087 152.208H166.823L167.111 149.832H170.591C170.543 150.36 170.495 150.896 170.447 151.44C170.415 151.968 170.399 152.488 170.399 153V162H166.799L166.775 159.72H167.063C166.807 160.488 166.295 161.104 165.527 161.568C164.759 162.032 163.895 162.264 162.935 162.264ZM164.039 159.528C164.871 159.528 165.543 159.232 166.055 158.64C166.567 158.048 166.823 157.136 166.823 155.904C166.823 154.672 166.567 153.768 166.055 153.192C165.543 152.616 164.871 152.328 164.039 152.328C163.207 152.328 162.535 152.616 162.023 153.192C161.511 153.768 161.255 154.672 161.255 155.904C161.255 157.136 161.503 158.048 161.999 158.64C162.511 159.232 163.191 159.528 164.039 159.528ZM179.227 162.264C177.931 162.264 176.795 162.008 175.819 161.496C174.843 160.984 174.091 160.248 173.563 159.288C173.035 158.328 172.771 157.192 172.771 155.88C172.771 154.552 173.035 153.424 173.563 152.496C174.107 151.552 174.859 150.832 175.819 150.336C176.795 149.84 177.931 149.592 179.227 149.592C180.043 149.592 180.835 149.712 181.603 149.952C182.387 150.192 183.027 150.528 183.523 150.96L182.467 153.456C182.067 153.088 181.603 152.816 181.075 152.64C180.563 152.448 180.067 152.352 179.587 152.352C178.611 152.352 177.851 152.656 177.307 153.264C176.763 153.872 176.491 154.752 176.491 155.904C176.491 157.056 176.763 157.936 177.307 158.544C177.851 159.152 178.611 159.456 179.587 159.456C180.051 159.456 180.539 159.368 181.051 159.192C181.579 159.016 182.051 158.752 182.467 158.4L183.523 160.872C183.011 161.304 182.363 161.648 181.579 161.904C180.811 162.144 180.027 162.264 179.227 162.264ZM185.582 162V144.336H189.206V154.896H189.254L193.766 149.832H198.086L192.254 156.312V154.992L198.398 162H193.958L189.254 156.72H189.206V162H185.582Z" fill="#252525"/>
<path d="M29.43 185.112C28.8887 185.112 28.38 185.033 27.904 184.874C27.4373 184.715 27.05 184.496 26.742 184.216L27.078 183.586C27.4233 183.866 27.7967 184.076 28.198 184.216C28.5993 184.347 29.0193 184.412 29.458 184.412C30.0553 184.412 30.508 184.3 30.816 184.076C31.124 183.852 31.278 183.549 31.278 183.166C31.278 182.867 31.18 182.625 30.984 182.438C30.788 182.251 30.4613 182.111 30.004 182.018L28.744 181.752C28.1467 181.612 27.6987 181.388 27.4 181.08C27.1107 180.772 26.966 180.385 26.966 179.918C26.966 179.517 27.0687 179.162 27.274 178.854C27.4887 178.546 27.792 178.303 28.184 178.126C28.576 177.949 29.038 177.86 29.57 177.86C30.074 177.86 30.536 177.944 30.956 178.112C31.3853 178.271 31.7353 178.499 32.006 178.798L31.642 179.414C31.362 179.134 31.0447 178.924 30.69 178.784C30.3447 178.644 29.976 178.574 29.584 178.574C29.0053 178.574 28.5667 178.695 28.268 178.938C27.9693 179.171 27.82 179.484 27.82 179.876C27.82 180.175 27.9133 180.422 28.1 180.618C28.2867 180.805 28.5807 180.945 28.982 181.038L30.242 181.318C30.8767 181.458 31.348 181.673 31.656 181.962C31.964 182.251 32.118 182.634 32.118 183.11C32.118 183.521 32.006 183.88 31.782 184.188C31.558 184.487 31.2453 184.715 30.844 184.874C30.4427 185.033 29.9713 185.112 29.43 185.112ZM34.08 185V177.986H34.934V185H34.08ZM33.94 176.264V175.2H35.088V176.264H33.94ZM40.2895 188.122C39.7015 188.122 39.1508 188.043 38.6375 187.884C38.1335 187.725 37.6808 187.487 37.2795 187.17L37.5875 186.512C37.8862 186.727 38.1708 186.895 38.4415 187.016C38.7215 187.147 39.0108 187.24 39.3095 187.296C39.6082 187.361 39.9302 187.394 40.2755 187.394C40.9848 187.394 41.5215 187.203 41.8855 186.82C42.2495 186.447 42.4315 185.905 42.4315 185.196V182.97H42.5855C42.4362 183.558 42.1235 184.02 41.6475 184.356C41.1715 184.683 40.6115 184.846 39.9675 184.846C39.3235 184.846 38.7635 184.706 38.2875 184.426C37.8208 184.137 37.4568 183.731 37.1955 183.208C36.9435 182.676 36.8175 182.055 36.8175 181.346C36.8175 180.637 36.9435 180.021 37.1955 179.498C37.4568 178.975 37.8208 178.574 38.2875 178.294C38.7635 178.005 39.3235 177.86 39.9675 177.86C40.6115 177.86 41.1715 178.028 41.6475 178.364C42.1235 178.691 42.4362 179.153 42.5855 179.75L42.4315 179.596L42.5575 177.986H43.3975C43.3602 178.257 43.3322 178.523 43.3135 178.784C43.2948 179.045 43.2855 179.302 43.2855 179.554V185.07C43.2855 186.078 43.0288 186.839 42.5155 187.352C42.0115 187.865 41.2695 188.122 40.2895 188.122ZM40.0655 184.118C40.7935 184.118 41.3675 183.875 41.7875 183.39C42.2168 182.905 42.4315 182.223 42.4315 181.346C42.4315 180.478 42.2168 179.801 41.7875 179.316C41.3675 178.831 40.7935 178.588 40.0655 178.588C39.3375 178.588 38.7588 178.831 38.3295 179.316C37.9002 179.801 37.6855 180.478 37.6855 181.346C37.6855 182.223 37.9002 182.905 38.3295 183.39C38.7588 183.875 39.3375 184.118 40.0655 184.118ZM45.5917 185V179.554C45.5917 179.302 45.5824 179.045 45.5637 178.784C45.545 178.523 45.517 178.257 45.4797 177.986H46.3197L46.4457 179.596H46.2777C46.483 179.036 46.8144 178.607 47.2717 178.308C47.729 178.009 48.261 177.86 48.8677 177.86C49.6984 177.86 50.3237 178.079 50.7437 178.518C51.173 178.957 51.3877 179.643 51.3877 180.576V185H50.5337V180.646C50.5337 179.927 50.389 179.409 50.0997 179.092C49.8104 178.765 49.3624 178.602 48.7557 178.602C48.0464 178.602 47.4817 178.817 47.0617 179.246C46.651 179.675 46.4457 180.254 46.4457 180.982V185H45.5917ZM57.2538 185V177.986H58.1078V185H57.2538ZM57.1138 176.264V175.2H58.2618V176.264H57.1138ZM60.4393 185V179.554C60.4393 179.302 60.43 179.045 60.4113 178.784C60.3927 178.523 60.3647 178.257 60.3273 177.986H61.1673L61.2933 179.596H61.1253C61.3307 179.036 61.662 178.607 62.1193 178.308C62.5767 178.009 63.1087 177.86 63.7153 177.86C64.546 177.86 65.1713 178.079 65.5913 178.518C66.0207 178.957 66.2353 179.643 66.2353 180.576V185H65.3813V180.646C65.3813 179.927 65.2367 179.409 64.9473 179.092C64.658 178.765 64.21 178.602 63.6033 178.602C62.894 178.602 62.3293 178.817 61.9093 179.246C61.4987 179.675 61.2933 180.254 61.2933 180.982V185H60.4393ZM74.3695 185.112C73.7441 185.112 73.2635 184.925 72.9275 184.552C72.6008 184.179 72.4375 183.605 72.4375 182.83V178.672H71.0375V177.986H72.4375V176.026L73.2915 175.746V177.986H75.3635V178.672H73.2915V182.704C73.2915 183.292 73.3848 183.717 73.5715 183.978C73.7581 184.239 74.0568 184.37 74.4675 184.37C74.6541 184.37 74.8175 184.351 74.9575 184.314C75.1068 184.277 75.2328 184.235 75.3355 184.188V184.944C75.2235 184.991 75.0788 185.028 74.9015 185.056C74.7241 185.093 74.5468 185.112 74.3695 185.112ZM79.5219 185.112C78.8592 185.112 78.2852 184.967 77.7999 184.678C77.3239 184.389 76.9552 183.973 76.6939 183.432C76.4326 182.891 76.3019 182.242 76.3019 181.486C76.3019 180.739 76.4326 180.095 76.6939 179.554C76.9552 179.013 77.3239 178.597 77.7999 178.308C78.2852 178.009 78.8592 177.86 79.5219 177.86C80.1752 177.86 80.7399 178.009 81.2159 178.308C81.7012 178.597 82.0746 179.013 82.3359 179.554C82.6066 180.095 82.7419 180.739 82.7419 181.486C82.7419 182.242 82.6066 182.891 82.3359 183.432C82.0746 183.973 81.7012 184.389 81.2159 184.678C80.7399 184.967 80.1752 185.112 79.5219 185.112ZM79.5219 184.384C80.2312 184.384 80.8006 184.137 81.2299 183.642C81.6592 183.147 81.8739 182.429 81.8739 181.486C81.8739 180.543 81.6592 179.825 81.2299 179.33C80.8006 178.835 80.2312 178.588 79.5219 178.588C78.8032 178.588 78.2292 178.835 77.7999 179.33C77.3799 179.825 77.1699 180.543 77.1699 181.486C77.1699 182.429 77.3799 183.147 77.7999 183.642C78.2292 184.137 78.8032 184.384 79.5219 184.384ZM90.8396 185.112C90.2049 185.112 89.6542 184.967 89.1876 184.678C88.7209 184.389 88.3616 183.973 88.1096 183.432C87.8576 182.891 87.7316 182.242 87.7316 181.486C87.7316 180.73 87.8576 180.086 88.1096 179.554C88.3709 179.013 88.7349 178.597 89.2016 178.308C89.6682 178.009 90.2142 177.86 90.8396 177.86C91.4836 177.86 92.0389 178.028 92.5056 178.364C92.9816 178.7 93.2942 179.157 93.4436 179.736H93.2756L93.4156 177.986H94.2416C94.2136 178.257 94.1856 178.523 94.1576 178.784C94.1389 179.045 94.1296 179.302 94.1296 179.554V185H93.2756V183.25H93.4296C93.2802 183.829 92.9676 184.286 92.4916 184.622C92.0249 184.949 91.4742 185.112 90.8396 185.112ZM90.9516 184.384C91.6702 184.384 92.2396 184.137 92.6596 183.642C93.0796 183.147 93.2896 182.429 93.2896 181.486C93.2896 180.543 93.0796 179.825 92.6596 179.33C92.2396 178.835 91.6702 178.588 90.9516 178.588C90.2329 178.588 89.6589 178.835 89.2296 179.33C88.8096 179.825 88.5996 180.543 88.5996 181.486C88.5996 182.429 88.8096 183.147 89.2296 183.642C89.6589 184.137 90.2329 184.384 90.9516 184.384ZM99.2791 185.112C98.6164 185.112 98.0377 184.967 97.5431 184.678C97.0484 184.379 96.6657 183.955 96.3951 183.404C96.1337 182.853 96.0031 182.2 96.0031 181.444C96.0031 180.688 96.1384 180.044 96.4091 179.512C96.6797 178.971 97.0577 178.56 97.5431 178.28C98.0377 178 98.6164 177.86 99.2791 177.86C99.7271 177.86 100.156 177.944 100.567 178.112C100.987 178.28 101.332 178.513 101.603 178.812L101.253 179.442C100.964 179.153 100.651 178.943 100.315 178.812C99.9791 178.672 99.6431 178.602 99.3071 178.602C98.5417 178.602 97.9444 178.845 97.5151 179.33C97.0857 179.815 96.8711 180.525 96.8711 181.458C96.8711 182.391 97.0857 183.115 97.5151 183.628C97.9444 184.132 98.5417 184.384 99.3071 184.384C99.6244 184.384 99.9511 184.319 100.287 184.188C100.632 184.057 100.954 183.843 101.253 183.544L101.603 184.174C101.323 184.473 100.968 184.706 100.539 184.874C100.119 185.033 99.6991 185.112 99.2791 185.112ZM106.019 185.112C105.357 185.112 104.778 184.967 104.283 184.678C103.789 184.379 103.406 183.955 103.135 183.404C102.874 182.853 102.743 182.2 102.743 181.444C102.743 180.688 102.879 180.044 103.149 179.512C103.42 178.971 103.798 178.56 104.283 178.28C104.778 178 105.357 177.86 106.019 177.86C106.467 177.86 106.897 177.944 107.307 178.112C107.727 178.28 108.073 178.513 108.343 178.812L107.993 179.442C107.704 179.153 107.391 178.943 107.055 178.812C106.719 178.672 106.383 178.602 106.047 178.602C105.282 178.602 104.685 178.845 104.255 179.33C103.826 179.815 103.611 180.525 103.611 181.458C103.611 182.391 103.826 183.115 104.255 183.628C104.685 184.132 105.282 184.384 106.047 184.384C106.365 184.384 106.691 184.319 107.027 184.188C107.373 184.057 107.695 183.843 107.993 183.544L108.343 184.174C108.063 184.473 107.709 184.706 107.279 184.874C106.859 185.033 106.439 185.112 106.019 185.112ZM112.942 185.112C111.878 185.112 111.033 184.795 110.408 184.16C109.792 183.525 109.484 182.643 109.484 181.514C109.484 180.767 109.619 180.123 109.89 179.582C110.17 179.041 110.557 178.621 111.052 178.322C111.546 178.014 112.12 177.86 112.774 177.86C113.399 177.86 113.926 177.995 114.356 178.266C114.785 178.527 115.116 178.905 115.35 179.4C115.583 179.885 115.7 180.464 115.7 181.136V181.528H110.1V180.912H115.168L114.93 181.094C114.93 180.301 114.748 179.68 114.384 179.232C114.02 178.775 113.478 178.546 112.76 178.546C111.994 178.546 111.397 178.812 110.968 179.344C110.538 179.867 110.324 180.562 110.324 181.43V181.528C110.324 182.461 110.552 183.171 111.01 183.656C111.476 184.141 112.125 184.384 112.956 184.384C113.385 184.384 113.786 184.319 114.16 184.188C114.533 184.057 114.892 183.833 115.238 183.516L115.588 184.146C115.289 184.454 114.902 184.692 114.426 184.86C113.95 185.028 113.455 185.112 112.942 185.112ZM119.801 185.112C119.26 185.112 118.751 185.033 118.275 184.874C117.808 184.715 117.421 184.496 117.113 184.216L117.449 183.586C117.794 183.866 118.168 184.076 118.569 184.216C118.97 184.347 119.39 184.412 119.829 184.412C120.426 184.412 120.879 184.3 121.187 184.076C121.495 183.852 121.649 183.549 121.649 183.166C121.649 182.867 121.551 182.625 121.355 182.438C121.159 182.251 120.832 182.111 120.375 182.018L119.115 181.752C118.518 181.612 118.07 181.388 117.771 181.08C117.482 180.772 117.337 180.385 117.337 179.918C117.337 179.517 117.44 179.162 117.645 178.854C117.86 178.546 118.163 178.303 118.555 178.126C118.947 177.949 119.409 177.86 119.941 177.86C120.445 177.86 120.907 177.944 121.327 178.112C121.756 178.271 122.106 178.499 122.377 178.798L122.013 179.414C121.733 179.134 121.416 178.924 121.061 178.784C120.716 178.644 120.347 178.574 119.955 178.574C119.376 178.574 118.938 178.695 118.639 178.938C118.34 179.171 118.191 179.484 118.191 179.876C118.191 180.175 118.284 180.422 118.471 180.618C118.658 180.805 118.952 180.945 119.353 181.038L120.613 181.318C121.248 181.458 121.719 181.673 122.027 181.962C122.335 182.251 122.489 182.634 122.489 183.11C122.489 183.521 122.377 183.88 122.153 184.188C121.929 184.487 121.616 184.715 121.215 184.874C120.814 185.033 120.342 185.112 119.801 185.112ZM126.719 185.112C126.178 185.112 125.669 185.033 125.193 184.874C124.726 184.715 124.339 184.496 124.031 184.216L124.367 183.586C124.712 183.866 125.086 184.076 125.487 184.216C125.888 184.347 126.308 184.412 126.747 184.412C127.344 184.412 127.797 184.3 128.105 184.076C128.413 183.852 128.567 183.549 128.567 183.166C128.567 182.867 128.469 182.625 128.273 182.438C128.077 182.251 127.75 182.111 127.293 182.018L126.033 181.752C125.436 181.612 124.988 181.388 124.689 181.08C124.4 180.772 124.255 180.385 124.255 179.918C124.255 179.517 124.358 179.162 124.563 178.854C124.778 178.546 125.081 178.303 125.473 178.126C125.865 177.949 126.327 177.86 126.859 177.86C127.363 177.86 127.825 177.944 128.245 178.112C128.674 178.271 129.024 178.499 129.295 178.798L128.931 179.414C128.651 179.134 128.334 178.924 127.979 178.784C127.634 178.644 127.265 178.574 126.873 178.574C126.294 178.574 125.856 178.695 125.557 178.938C125.258 179.171 125.109 179.484 125.109 179.876C125.109 180.175 125.202 180.422 125.389 180.618C125.576 180.805 125.87 180.945 126.271 181.038L127.531 181.318C128.166 181.458 128.637 181.673 128.945 181.962C129.253 182.251 129.407 182.634 129.407 183.11C129.407 183.521 129.295 183.88 129.071 184.188C128.847 184.487 128.534 184.715 128.133 184.874C127.732 185.033 127.26 185.112 126.719 185.112ZM134.615 188.178L134.405 187.436C134.844 187.333 135.208 187.207 135.497 187.058C135.787 186.918 136.029 186.731 136.225 186.498C136.421 186.265 136.594 185.975 136.743 185.63L137.107 184.79L137.093 185.168L134.027 177.986H134.979L137.653 184.468H137.303L139.949 177.986H140.873L137.625 185.672C137.448 186.101 137.252 186.456 137.037 186.736C136.832 187.025 136.608 187.263 136.365 187.45C136.123 187.646 135.857 187.8 135.567 187.912C135.278 188.024 134.961 188.113 134.615 188.178ZM144.983 185.112C144.32 185.112 143.746 184.967 143.261 184.678C142.785 184.389 142.416 183.973 142.155 183.432C141.893 182.891 141.763 182.242 141.763 181.486C141.763 180.739 141.893 180.095 142.155 179.554C142.416 179.013 142.785 178.597 143.261 178.308C143.746 178.009 144.32 177.86 144.983 177.86C145.636 177.86 146.201 178.009 146.677 178.308C147.162 178.597 147.535 179.013 147.797 179.554C148.067 180.095 148.203 180.739 148.203 181.486C148.203 182.242 148.067 182.891 147.797 183.432C147.535 183.973 147.162 184.389 146.677 184.678C146.201 184.967 145.636 185.112 144.983 185.112ZM144.983 184.384C145.692 184.384 146.261 184.137 146.691 183.642C147.12 183.147 147.335 182.429 147.335 181.486C147.335 180.543 147.12 179.825 146.691 179.33C146.261 178.835 145.692 178.588 144.983 178.588C144.264 178.588 143.69 178.835 143.261 179.33C142.841 179.825 142.631 180.543 142.631 181.486C142.631 182.429 142.841 183.147 143.261 183.642C143.69 184.137 144.264 184.384 144.983 184.384ZM152.536 185.112C151.715 185.112 151.089 184.893 150.66 184.454C150.24 184.006 150.03 183.32 150.03 182.396V177.986H150.884V182.34C150.884 183.049 151.029 183.567 151.318 183.894C151.607 184.221 152.051 184.384 152.648 184.384C153.311 184.384 153.843 184.169 154.244 183.74C154.655 183.301 154.86 182.723 154.86 182.004V177.986H155.714V185H154.874V183.348H155.056C154.86 183.917 154.538 184.356 154.09 184.664C153.651 184.963 153.133 185.112 152.536 185.112ZM158.029 185V179.624C158.029 179.353 158.02 179.083 158.001 178.812C157.992 178.532 157.968 178.257 157.931 177.986H158.771L158.883 179.596L158.715 179.61C158.808 179.218 158.976 178.896 159.219 178.644C159.462 178.383 159.742 178.187 160.059 178.056C160.376 177.925 160.703 177.86 161.039 177.86C161.16 177.86 161.272 177.869 161.375 177.888C161.487 177.897 161.59 177.916 161.683 177.944L161.655 178.714C161.543 178.677 161.431 178.653 161.319 178.644C161.207 178.635 161.086 178.63 160.955 178.63C160.535 178.63 160.166 178.733 159.849 178.938C159.541 179.143 159.303 179.405 159.135 179.722C158.967 180.039 158.883 180.361 158.883 180.688V185H158.029ZM169.152 185.112C168.517 185.112 167.967 184.967 167.5 184.678C167.033 184.389 166.674 183.973 166.422 183.432C166.17 182.891 166.044 182.242 166.044 181.486C166.044 180.73 166.17 180.086 166.422 179.554C166.683 179.013 167.047 178.597 167.514 178.308C167.981 178.009 168.527 177.86 169.152 177.86C169.796 177.86 170.351 178.028 170.818 178.364C171.294 178.7 171.607 179.157 171.756 179.736H171.588L171.728 177.986H172.554C172.526 178.257 172.498 178.523 172.47 178.784C172.451 179.045 172.442 179.302 172.442 179.554V185H171.588V183.25H171.742C171.593 183.829 171.28 184.286 170.804 184.622C170.337 184.949 169.787 185.112 169.152 185.112ZM169.264 184.384C169.983 184.384 170.552 184.137 170.972 183.642C171.392 183.147 171.602 182.429 171.602 181.486C171.602 180.543 171.392 179.825 170.972 179.33C170.552 178.835 169.983 178.588 169.264 178.588C168.545 178.588 167.971 178.835 167.542 179.33C167.122 179.825 166.912 180.543 166.912 181.486C166.912 182.429 167.122 183.147 167.542 183.642C167.971 184.137 168.545 184.384 169.264 184.384ZM177.592 185.112C176.929 185.112 176.35 184.967 175.856 184.678C175.361 184.379 174.978 183.955 174.708 183.404C174.446 182.853 174.316 182.2 174.316 181.444C174.316 180.688 174.451 180.044 174.722 179.512C174.992 178.971 175.37 178.56 175.856 178.28C176.35 178 176.929 177.86 177.592 177.86C178.04 177.86 178.469 177.944 178.88 178.112C179.3 178.28 179.645 178.513 179.916 178.812L179.566 179.442C179.276 179.153 178.964 178.943 178.628 178.812C178.292 178.672 177.956 178.602 177.62 178.602C176.854 178.602 176.257 178.845 175.828 179.33C175.398 179.815 175.184 180.525 175.184 181.458C175.184 182.391 175.398 183.115 175.828 183.628C176.257 184.132 176.854 184.384 177.62 184.384C177.937 184.384 178.264 184.319 178.6 184.188C178.945 184.057 179.267 183.843 179.566 183.544L179.916 184.174C179.636 184.473 179.281 184.706 178.852 184.874C178.432 185.033 178.012 185.112 177.592 185.112ZM184.332 185.112C183.669 185.112 183.09 184.967 182.596 184.678C182.101 184.379 181.718 183.955 181.448 183.404C181.186 182.853 181.056 182.2 181.056 181.444C181.056 180.688 181.191 180.044 181.462 179.512C181.732 178.971 182.11 178.56 182.596 178.28C183.09 178 183.669 177.86 184.332 177.86C184.78 177.86 185.209 177.944 185.62 178.112C186.04 178.28 186.385 178.513 186.656 178.812L186.306 179.442C186.016 179.153 185.704 178.943 185.368 178.812C185.032 178.672 184.696 178.602 184.36 178.602C183.594 178.602 182.997 178.845 182.568 179.33C182.138 179.815 181.924 180.525 181.924 181.458C181.924 182.391 182.138 183.115 182.568 183.628C182.997 184.132 183.594 184.384 184.36 184.384C184.677 184.384 185.004 184.319 185.34 184.188C185.685 184.057 186.007 183.843 186.306 183.544L186.656 184.174C186.376 184.473 186.021 184.706 185.592 184.874C185.172 185.033 184.752 185.112 184.332 185.112ZM191.016 185.112C190.353 185.112 189.779 184.967 189.294 184.678C188.818 184.389 188.449 183.973 188.188 183.432C187.927 182.891 187.796 182.242 187.796 181.486C187.796 180.739 187.927 180.095 188.188 179.554C188.449 179.013 188.818 178.597 189.294 178.308C189.779 178.009 190.353 177.86 191.016 177.86C191.669 177.86 192.234 178.009 192.71 178.308C193.195 178.597 193.569 179.013 193.83 179.554C194.101 180.095 194.236 180.739 194.236 181.486C194.236 182.242 194.101 182.891 193.83 183.432C193.569 183.973 193.195 184.389 192.71 184.678C192.234 184.967 191.669 185.112 191.016 185.112ZM191.016 184.384C191.725 184.384 192.295 184.137 192.724 183.642C193.153 183.147 193.368 182.429 193.368 181.486C193.368 180.543 193.153 179.825 192.724 179.33C192.295 178.835 191.725 178.588 191.016 178.588C190.297 178.588 189.723 178.835 189.294 179.33C188.874 179.825 188.664 180.543 188.664 181.486C188.664 182.429 188.874 183.147 189.294 183.642C189.723 184.137 190.297 184.384 191.016 184.384ZM198.569 185.112C197.748 185.112 197.123 184.893 196.693 184.454C196.273 184.006 196.063 183.32 196.063 182.396V177.986H196.917V182.34C196.917 183.049 197.062 183.567 197.351 183.894C197.641 184.221 198.084 184.384 198.681 184.384C199.344 184.384 199.876 184.169 200.277 183.74C200.688 183.301 200.893 182.723 200.893 182.004V177.986H201.747V185H200.907V183.348H201.089C200.893 183.917 200.571 184.356 200.123 184.664C199.685 184.963 199.167 185.112 198.569 185.112ZM204.076 185V179.554C204.076 179.302 204.067 179.045 204.048 178.784C204.029 178.523 204.001 178.257 203.964 177.986H204.804L204.93 179.596H204.762C204.967 179.036 205.299 178.607 205.756 178.308C206.213 178.009 206.745 177.86 207.352 177.86C208.183 177.86 208.808 178.079 209.228 178.518C209.657 178.957 209.872 179.643 209.872 180.576V185H209.018V180.646C209.018 179.927 208.873 179.409 208.584 179.092C208.295 178.765 207.847 178.602 207.24 178.602C206.531 178.602 205.966 178.817 205.546 179.246C205.135 179.675 204.93 180.254 204.93 180.982V185H204.076ZM214.438 185.112C213.812 185.112 213.332 184.925 212.996 184.552C212.669 184.179 212.506 183.605 212.506 182.83V178.672H211.106V177.986H212.506V176.026L213.36 175.746V177.986H215.432V178.672H213.36V182.704C213.36 183.292 213.453 183.717 213.64 183.978C213.826 184.239 214.125 184.37 214.536 184.37C214.722 184.37 214.886 184.351 215.026 184.314C215.175 184.277 215.301 184.235 215.404 184.188V184.944C215.292 184.991 215.147 185.028 214.97 185.056C214.792 185.093 214.615 185.112 214.438 185.112Z" fill="#252525"/>
</svg>
