<svg width="321" height="251" viewBox="0 0 321 251" fill="none" xmlns="http://www.w3.org/2000/svg">
<path d="M186.426 69.7708L180.007 66.3368L180.487 66.0796L186.907 69.5139L186.426 69.7708Z" fill="#CBCBCB"/>
<path d="M180.827 69.7708L180.347 69.5139L186.766 66.0796L187.246 66.3368L180.827 69.7708Z" fill="#CBCBCB"/>
<path d="M133.049 43.1524L132.739 43.7612L134.552 44.6971L134.862 44.0882L133.049 43.1524Z" fill="#CBCBCB"/>
<path d="M170.647 63.3245L167.037 61.4618L167.347 60.8529L170.956 62.7156L170.647 63.3245ZM163.428 59.5991L159.818 57.7362L160.128 57.1274L163.738 58.9902L163.428 59.5991ZM156.209 55.8735L152.6 54.0109L152.909 53.402L156.519 55.2647L156.209 55.8735ZM148.99 52.1481L145.381 50.2854L145.69 49.6766L149.3 51.5392L148.99 52.1481ZM141.771 48.4227L138.162 46.56L138.472 45.9512L142.081 47.8139L141.771 48.4227Z" fill="#CBCBCB"/>
<path d="M174.566 64.5782L174.256 65.187L176.07 66.1229L176.379 65.514L174.566 64.5782Z" fill="#CBCBCB"/>
<path d="M37.6434 88.9458C37.6434 89.1595 37.6365 89.3713 37.6227 89.5814C37.5456 90.7931 37.2417 91.9792 36.7269 93.0771C36.7229 93.0865 36.7182 93.0952 36.7143 93.104C36.6903 93.1549 36.6657 93.2058 36.6404 93.256C36.4873 93.5665 36.3175 93.8684 36.1316 94.1602C35.2828 95.5 34.1194 96.6086 32.7441 97.388C31.3688 98.1674 29.8241 98.5937 28.2465 98.6291L28.3416 104.138L29.582 103.48L29.8034 103.904L28.3509 104.674L28.5285 114.905L28.5305 115.041L27.5714 115.256L27.5734 115.119L27.8754 98.6298C26.6055 98.6115 25.3519 98.3392 24.1873 97.8289C23.0228 97.3187 21.9705 96.5805 21.0916 95.6572C21.0311 95.5943 20.9712 95.5293 20.9127 95.465L20.906 95.4576C20.1737 94.6533 19.5814 93.7303 19.1542 92.7275C19.1635 92.7382 19.1735 92.7483 19.1828 92.759C18.2172 90.485 18.1517 87.9252 18.9998 85.6042C19.8478 83.2831 21.5451 81.3766 23.7439 80.2752C23.7771 80.2585 23.8111 80.2424 23.8443 80.2256C26.0193 79.1706 28.5086 78.977 30.8186 79.6832C33.1287 80.3895 35.091 81.9441 36.3165 84.0388C36.3751 84.138 36.4316 84.2391 36.4861 84.3409C37.2474 85.7546 37.6452 87.3376 37.6434 88.9458Z" fill="#E5E5E5"/>
<path d="M36.3487 93.1091C43.3107 93.1091 48.9546 87.4251 48.9546 80.4137C48.9546 73.4022 43.3107 67.7183 36.3487 67.7183C29.3867 67.7183 23.7429 73.4022 23.7429 80.4137C23.7429 87.4251 29.3867 93.1091 36.3487 93.1091Z" fill="#E5E5E5"/>
<path opacity="0.2" d="M27.041 71.9346C25.8651 74.7046 25.7056 77.8055 26.5909 80.6831C27.4763 83.5607 29.3487 86.0274 31.8738 87.6426C34.3988 89.2578 37.4118 89.9162 40.3744 89.5C43.337 89.0839 46.0562 87.6204 48.046 85.371C47.3277 87.0634 46.2527 88.5782 44.8954 89.8106C43.538 91.043 41.9309 91.9635 40.1852 92.5083C38.4396 93.053 36.5972 93.2091 34.7858 92.9656C32.9743 92.7221 31.2371 92.0848 29.6945 91.0981C28.1518 90.1113 26.8407 88.7985 25.8518 87.2507C24.8629 85.7029 24.22 83.9571 23.9676 82.1343C23.7152 80.3114 23.8594 78.4551 24.39 76.6939C24.9207 74.9327 25.8252 73.3087 27.041 71.9346Z" fill="#252525"/>
<path d="M37.0307 115.781L35.7432 115.417L35.7459 115.278L36.1317 94.1604L36.151 93.1074L36.1514 93.0767L36.2189 89.3871L36.3165 84.0396V84.0388L36.3829 80.4141H36.4184L36.4863 84.3411L36.5746 89.4524L36.6379 93.0791V93.1059L36.6406 93.2555V93.2562L36.7629 100.326L36.7756 101.028L37.0283 115.64L37.0307 115.781Z" fill="#252525"/>
<path d="M38.3883 99.464L36.3045 100.569L36.5949 101.124L38.6787 100.019L38.3883 99.464Z" fill="#252525"/>
<path d="M199.758 39.3273C183.847 38.38 167.888 38.6271 152.014 40.0665C144.363 40.763 136.59 41.5153 129.08 43.1961C123.031 44.5499 116.011 46.8381 112.242 52.1677C111.453 53.2416 110.921 54.4848 110.688 55.8001C110.455 57.1154 110.527 58.4672 110.899 59.7496C111.798 62.7878 114.034 65.3168 116.414 67.2975C121.894 71.8564 128.692 74.5093 134.765 78.1311C145.853 84.744 156.001 93.6573 162.515 104.98C165.381 109.962 168.107 116.587 164.916 122.077C161.789 127.456 154.809 129.309 149.117 130.183C141.983 131.278 134.634 130.981 127.469 130.368C119.615 129.63 111.804 128.478 104.07 126.916C88.9175 123.986 73.903 120.258 58.5401 118.563C50.837 117.651 43.069 117.425 35.3264 117.887C28.3339 118.362 21.2816 119.476 14.7127 122.016C9.65082 123.972 4.2551 126.933 1.52087 131.87C-1.11481 136.629 -0.086813 142.117 2.78311 146.508C6.23622 151.792 11.6209 155.412 17.2191 158.058C23.5932 161.071 30.4109 163.024 37.2373 164.685C40.6995 165.527 44.1804 166.288 47.6616 167.046C48.3878 167.204 48.6981 166.081 47.9693 165.922C40.9491 164.394 33.9087 162.862 27.0628 160.65C20.7277 158.604 14.2446 155.982 9.05676 151.685C4.85977 148.208 0.86929 143.13 1.11701 137.357C1.36674 131.537 6.21556 127.473 10.9681 124.972C16.9074 121.846 23.6552 120.323 30.2674 119.527C37.8384 118.678 45.4736 118.573 53.0647 119.215C68.3914 120.389 83.3757 123.906 98.403 126.972C113.002 129.952 128.056 132.711 143.017 131.947C148.947 131.644 155.301 130.788 160.536 127.774C162.934 126.393 165.095 124.447 166.314 121.914C167.411 119.504 167.758 116.816 167.309 114.204C166.46 108.465 163.076 103.143 159.699 98.5723C155.997 93.6145 151.703 89.1347 146.913 85.2343C141.657 80.9741 135.99 77.2558 129.996 74.1354C126.818 72.4501 123.594 70.8296 120.565 68.8776C117.661 67.006 114.796 64.7541 113.023 61.7158C111.489 59.088 111.207 56.0888 112.805 53.4236C114.421 50.7279 117.205 48.8478 119.951 47.474C126.566 44.1638 134.256 43.2778 141.494 42.3699C157.034 40.4271 172.695 39.6407 188.35 40.017C192.155 40.1072 195.958 40.2658 199.758 40.493C200.502 40.537 200.499 39.3713 199.758 39.3273V39.3273Z" fill="#252525"/>
<path d="M189.664 1.96298L192.067 0.0271115C190.2 -0.18034 189.433 0.845145 189.119 1.65682C187.661 1.04685 186.073 1.84625 186.073 1.84625L190.881 3.60436C190.639 2.9518 190.217 2.38242 189.664 1.96298Z" fill="#252525"/>
<path d="M178 8.09139L180.404 6.15553C178.537 5.94808 177.77 6.97356 177.456 7.78523C175.997 7.17526 174.409 7.97467 174.409 7.97467L179.218 9.73277C178.975 9.08022 178.553 8.51084 178 8.09139Z" fill="#252525"/>
<path d="M189.664 17.795L192.067 15.8591C190.2 15.6517 189.433 16.6772 189.119 17.4888C187.661 16.8789 186.073 17.6783 186.073 17.6783L190.881 19.4364C190.639 18.7838 190.217 18.2144 189.664 17.795Z" fill="#252525"/>
<path d="M153.634 20.6634C157.633 20.6634 160.875 17.3985 160.875 13.371C160.875 9.34353 157.633 6.07861 153.634 6.07861C149.635 6.07861 146.393 9.34353 146.393 13.371C146.393 17.3985 149.635 20.6634 153.634 20.6634Z" fill="#7091E6"/>
<path d="M176.341 35.8421H140.819C140.774 35.8426 140.73 35.8391 140.686 35.8315L157.487 6.52577C157.589 6.34322 157.738 6.19135 157.918 6.08567C158.097 5.98 158.302 5.92432 158.51 5.92432C158.718 5.92432 158.923 5.98 159.103 6.08567C159.283 6.19135 159.431 6.34322 159.534 6.52577L170.809 26.1915L171.349 27.1324L176.341 35.8421Z" fill="#3D52A0"/>
<path d="M196.118 35.8426H165.395L171.348 27.1336L171.776 26.5061L179.534 15.1567C179.671 14.9831 179.843 14.8404 180.039 14.7381C180.234 14.6358 180.449 14.5761 180.669 14.5629C180.889 14.5496 181.109 14.5832 181.315 14.6614C181.521 14.7395 181.709 14.8605 181.866 15.0165C181.906 15.0608 181.943 15.1076 181.977 15.1567L196.118 35.8426Z" fill="#3D52A0"/>
<path d="M145.438 103.056C148.805 104.75 150.855 106.989 150.855 109.444C150.855 114.733 141.352 119.02 129.63 119.02C124.534 119.02 119.858 118.209 116.199 116.858C120.085 118.815 125.727 120.046 132.007 120.046C143.73 120.046 153.232 115.759 153.232 110.47C153.232 107.481 150.195 104.812 145.438 103.056Z" fill="#F1F1F1"/>
<path d="M152.928 106.688C156.727 108.601 159.04 111.127 159.04 113.897C159.04 119.865 148.317 124.703 135.09 124.703C129.339 124.703 124.063 123.788 119.935 122.263C124.32 124.471 130.685 125.861 137.773 125.861C151 125.861 161.722 121.023 161.722 115.055C161.722 111.682 158.295 108.67 152.928 106.688Z" fill="#F1F1F1"/>
<path d="M142.572 104.656C144.944 105.85 146.388 107.427 146.388 109.157C146.388 112.883 139.694 115.903 131.435 115.903C128.217 115.945 125.017 115.43 121.972 114.38C124.71 115.758 128.685 116.626 133.11 116.626C141.368 116.626 148.063 113.606 148.063 109.879C148.063 107.773 145.923 105.893 142.572 104.656Z" fill="#F1F1F1"/>
<path d="M109.242 103.972C109.242 103.972 109.764 111.645 124.706 111.645C139.648 111.645 144.11 103.972 144.11 103.972H109.242Z" fill="#252525"/>
<path d="M130.451 83.8391C128.294 82.1887 125.587 81.4428 122.896 81.7576C125.301 82.3415 127.424 83.7597 128.894 85.7633C130.364 87.767 131.087 90.228 130.935 92.7145C130.783 95.2011 129.766 97.5542 128.063 99.361C126.36 101.168 124.079 102.313 121.621 102.595C123.972 103.166 126.447 102.905 128.629 101.856C130.811 100.806 132.568 99.0315 133.604 96.8308C134.641 94.63 134.893 92.1371 134.318 89.7711C133.744 87.4051 132.379 85.3104 130.451 83.8391Z" fill="#252525"/>
<path d="M125.555 80.373H124.536V104.796H125.555V80.373Z" fill="#252525"/>
<path d="M192.51 62.2265L192.505 62.217L192.491 61.6205L195.682 56.9535L192.495 61.1739L192.483 61.3L192.374 56.5299L195.131 51.6913L192.366 55.6919L192.395 45.8093L192.395 45.7764L192.394 45.8087L192.211 53.5975L189.699 50.4337L192.203 54.2685L192.148 58.5354L189.836 54.3711L192.14 59.1627L192.109 61.5352L192.024 68.1083L192.018 68.5995C192.231 68.6011 192.442 68.5976 192.651 68.5888L192.506 62.2752L192.51 62.2265Z" fill="#CBCBCB"/>
<path d="M177.228 64.2787L177.222 64.2693L177.209 63.6727L180.4 59.0058L177.213 63.2262L177.201 63.3523L177.092 58.5821L179.849 53.7436L177.084 57.7441L177.113 47.8615L177.113 47.8286L177.112 47.861L176.929 55.6498L174.416 52.486L176.921 56.3208L176.866 60.5876L174.554 56.4234L176.857 61.2149L176.827 63.5875L176.742 70.1606L176.736 70.6517C176.949 70.6534 177.16 70.6498 177.369 70.641L177.224 64.3274L177.228 64.2787Z" fill="#CBCBCB"/>
<path d="M184.699 57.7801L184.694 57.7707L184.68 57.1742L187.872 52.5072L184.684 56.7276L184.672 56.8537L184.563 52.0836L187.32 47.245L184.555 51.2456L184.584 41.363L184.584 41.3301L184.583 41.3624L184.4 49.1512L181.888 45.9874L184.392 49.8222L184.337 54.089L182.025 49.9248L184.329 54.7163L184.298 57.0889L184.214 63.662L184.208 64.1532C184.42 64.1548 184.631 64.1512 184.84 64.1425L184.695 57.8289L184.699 57.7801Z" fill="#CBCBCB"/>
<path d="M58.484 171.348C60.7347 171.348 62.5592 169.511 62.5592 167.244C62.5592 164.978 60.7347 163.14 58.484 163.14C56.2333 163.14 54.4088 164.978 54.4088 167.244C54.4088 169.511 56.2333 171.348 58.484 171.348Z" fill="#3D52A0"/>
<path d="M30.156 153.396C27.252 153.396 24.804 152.868 22.812 151.812C20.844 150.732 19.356 149.22 18.348 147.276C17.34 145.308 16.836 143.016 16.836 140.4C16.836 137.712 17.376 135.384 18.456 133.416C19.56 131.448 21.144 129.924 23.208 128.844C25.272 127.764 27.744 127.224 30.624 127.224C32.472 127.224 34.092 127.464 35.484 127.944C36.9 128.4 38.136 129.06 39.192 129.924L37.392 134.28C36.624 133.728 35.904 133.296 35.232 132.984C34.56 132.648 33.864 132.42 33.144 132.3C32.424 132.156 31.596 132.084 30.66 132.084C28.02 132.084 26.028 132.804 24.684 134.244C23.364 135.66 22.704 137.724 22.704 140.436C22.704 143.124 23.328 145.164 24.576 146.556C25.824 147.948 27.78 148.644 30.444 148.644C31.332 148.644 32.244 148.56 33.18 148.392C34.116 148.224 35.04 147.972 35.952 147.636L34.944 149.796V142.956H29.364V138.96H39.588V151.416C38.316 152.04 36.84 152.532 35.16 152.892C33.504 153.228 31.836 153.396 30.156 153.396ZM53.2362 153.396C50.0682 153.396 47.5962 152.544 45.8202 150.84C44.0442 149.136 43.1562 146.82 43.1562 143.892C43.1562 141.996 43.5282 140.34 44.2722 138.924C45.0402 137.508 46.0962 136.404 47.4402 135.612C48.8082 134.796 50.4042 134.388 52.2282 134.388C54.0282 134.388 55.5282 134.772 56.7282 135.54C57.9522 136.308 58.8642 137.388 59.4642 138.78C60.0882 140.148 60.4002 141.744 60.4002 143.568V144.828H47.6202V142.128H56.4402L55.8282 142.632C55.8282 141.12 55.5162 139.98 54.8922 139.212C54.2922 138.42 53.4162 138.024 52.2642 138.024C50.9922 138.024 50.0082 138.492 49.3122 139.428C48.6402 140.364 48.3042 141.708 48.3042 143.46V144.036C48.3042 145.812 48.7362 147.132 49.6002 147.996C50.4882 148.86 51.7602 149.292 53.4162 149.292C54.4002 149.292 55.3242 149.172 56.1882 148.932C57.0762 148.668 57.9162 148.26 58.7082 147.708L60.2202 151.308C59.3082 151.98 58.2522 152.496 57.0522 152.856C55.8762 153.216 54.6042 153.396 53.2362 153.396ZM72.2757 153.396C69.8997 153.396 68.1117 152.808 66.9117 151.632C65.7117 150.432 65.1117 148.644 65.1117 146.268V138.816H61.6557V134.748H65.1117V130.284L70.5477 128.952V134.748H75.2277V138.816H70.5477V145.98C70.5477 147.132 70.7877 147.924 71.2677 148.356C71.7477 148.788 72.3597 149.004 73.1037 149.004C73.5597 149.004 73.9317 148.98 74.2197 148.932C74.5317 148.86 74.8557 148.764 75.1917 148.644V152.856C74.7357 153.048 74.2557 153.18 73.7517 153.252C73.2477 153.348 72.7557 153.396 72.2757 153.396ZM97.7173 153.396C95.6773 153.396 93.7693 153.144 91.9933 152.64C90.2173 152.136 88.7053 151.44 87.4573 150.552L89.1133 146.16C89.9293 146.712 90.7933 147.18 91.7053 147.564C92.6173 147.948 93.5773 148.248 94.5853 148.464C95.5933 148.656 96.6493 148.752 97.7533 148.752C99.4813 148.752 100.705 148.488 101.425 147.96C102.169 147.432 102.541 146.76 102.541 145.944C102.541 145.2 102.289 144.636 101.785 144.252C101.305 143.844 100.417 143.496 99.1213 143.208L94.8733 142.344C92.5453 141.864 90.8053 141.048 89.6533 139.896C88.5013 138.744 87.9253 137.208 87.9253 135.288C87.9253 133.656 88.3573 132.24 89.2213 131.04C90.0853 129.84 91.2973 128.904 92.8573 128.232C94.4413 127.56 96.2893 127.224 98.4013 127.224C100.201 127.224 101.881 127.476 103.441 127.98C105.001 128.484 106.285 129.204 107.293 130.14L105.637 134.244C104.653 133.452 103.549 132.864 102.325 132.48C101.125 132.072 99.7813 131.868 98.2933 131.868C96.7333 131.868 95.5333 132.144 94.6933 132.696C93.8773 133.248 93.4693 134.004 93.4693 134.964C93.4693 135.684 93.7213 136.272 94.2253 136.728C94.7293 137.16 95.6173 137.508 96.8893 137.772L101.065 138.6C103.441 139.08 105.205 139.884 106.357 141.012C107.509 142.14 108.085 143.64 108.085 145.512C108.085 147.096 107.653 148.476 106.789 149.652C105.949 150.828 104.749 151.752 103.189 152.424C101.653 153.072 99.8293 153.396 97.7173 153.396ZM120.159 153.396C117.783 153.396 115.995 152.808 114.795 151.632C113.595 150.432 112.995 148.644 112.995 146.268V138.816H109.539V134.748H112.995V130.284L118.431 128.952V134.748H123.111V138.816H118.431V145.98C118.431 147.132 118.671 147.924 119.151 148.356C119.631 148.788 120.243 149.004 120.987 149.004C121.443 149.004 121.815 148.98 122.103 148.932C122.415 148.86 122.739 148.764 123.075 148.644V152.856C122.619 153.048 122.139 153.18 121.635 153.252C121.131 153.348 120.639 153.396 120.159 153.396ZM132.992 153.396C131.408 153.396 130.016 153.012 128.816 152.244C127.616 151.476 126.68 150.384 126.008 148.968C125.336 147.552 125 145.848 125 143.856C125 141.888 125.336 140.196 126.008 138.78C126.68 137.364 127.616 136.284 128.816 135.54C130.016 134.772 131.408 134.388 132.992 134.388C134.456 134.388 135.764 134.748 136.916 135.468C138.092 136.164 138.86 137.112 139.22 138.312H138.824L139.256 134.748H144.476C144.404 135.54 144.332 136.344 144.26 137.16C144.212 137.952 144.188 138.732 144.188 139.5V153H138.788L138.752 149.58H139.184C138.8 150.732 138.032 151.656 136.88 152.352C135.728 153.048 134.432 153.396 132.992 153.396ZM134.648 149.292C135.896 149.292 136.904 148.848 137.672 147.96C138.44 147.072 138.824 145.704 138.824 143.856C138.824 142.008 138.44 140.652 137.672 139.788C136.904 138.924 135.896 138.492 134.648 138.492C133.4 138.492 132.392 138.924 131.624 139.788C130.856 140.652 130.472 142.008 130.472 143.856C130.472 145.704 130.844 147.072 131.588 147.96C132.356 148.848 133.376 149.292 134.648 149.292ZM148.61 153V139.572C148.61 138.78 148.586 137.976 148.538 137.16C148.514 136.344 148.454 135.54 148.358 134.748H153.578L154.19 140.076H153.362C153.602 138.78 153.986 137.712 154.514 136.872C155.066 136.032 155.738 135.408 156.53 135C157.346 134.592 158.27 134.388 159.302 134.388C159.758 134.388 160.118 134.412 160.382 134.46C160.646 134.484 160.91 134.544 161.174 134.64L161.138 139.428C160.634 139.212 160.202 139.08 159.842 139.032C159.506 138.96 159.074 138.924 158.546 138.924C157.538 138.924 156.698 139.116 156.026 139.5C155.378 139.884 154.886 140.448 154.55 141.192C154.238 141.936 154.082 142.836 154.082 143.892V153H148.61ZM173.034 153.396C170.658 153.396 168.87 152.808 167.67 151.632C166.47 150.432 165.87 148.644 165.87 146.268V138.816H162.414V134.748H165.87V130.284L171.306 128.952V134.748H175.986V138.816H171.306V145.98C171.306 147.132 171.546 147.924 172.026 148.356C172.506 148.788 173.118 149.004 173.862 149.004C174.318 149.004 174.69 148.98 174.978 148.932C175.29 148.86 175.614 148.764 175.95 148.644V152.856C175.494 153.048 175.014 153.18 174.51 153.252C174.006 153.348 173.514 153.396 173.034 153.396ZM187.779 153.396C184.611 153.396 182.139 152.544 180.363 150.84C178.587 149.136 177.699 146.82 177.699 143.892C177.699 141.996 178.071 140.34 178.815 138.924C179.583 137.508 180.639 136.404 181.983 135.612C183.351 134.796 184.947 134.388 186.771 134.388C188.571 134.388 190.071 134.772 191.271 135.54C192.495 136.308 193.407 137.388 194.007 138.78C194.631 140.148 194.943 141.744 194.943 143.568V144.828H182.163V142.128H190.983L190.371 142.632C190.371 141.12 190.059 139.98 189.435 139.212C188.835 138.42 187.959 138.024 186.807 138.024C185.535 138.024 184.551 138.492 183.855 139.428C183.183 140.364 182.847 141.708 182.847 143.46V144.036C182.847 145.812 183.279 147.132 184.143 147.996C185.031 148.86 186.303 149.292 187.959 149.292C188.943 149.292 189.867 149.172 190.731 148.932C191.619 148.668 192.459 148.26 193.251 147.708L194.763 151.308C193.851 151.98 192.795 152.496 191.595 152.856C190.419 153.216 189.147 153.396 187.779 153.396ZM205.556 153.396C203.972 153.396 202.568 153.012 201.344 152.244C200.144 151.476 199.196 150.384 198.5 148.968C197.828 147.552 197.492 145.848 197.492 143.856C197.492 141.888 197.828 140.196 198.5 138.78C199.172 137.364 200.12 136.284 201.344 135.54C202.568 134.772 203.972 134.388 205.556 134.388C206.996 134.388 208.28 134.736 209.408 135.432C210.56 136.104 211.328 137.016 211.712 138.168H211.244V126.504H216.68V153H211.316V149.436H211.784C211.4 150.636 210.632 151.596 209.48 152.316C208.328 153.036 207.02 153.396 205.556 153.396ZM207.176 149.292C208.424 149.292 209.432 148.848 210.2 147.96C210.968 147.072 211.352 145.704 211.352 143.856C211.352 142.008 210.968 140.652 210.2 139.788C209.432 138.924 208.424 138.492 207.176 138.492C205.928 138.492 204.908 138.924 204.116 139.788C203.348 140.652 202.964 142.008 202.964 143.856C202.964 145.704 203.348 147.072 204.116 147.96C204.908 148.848 205.928 149.292 207.176 149.292Z" fill="#252525"/>
<path d="M30.466 175.112C29.8127 175.112 29.2527 174.949 28.786 174.622C28.3287 174.286 28.0207 173.824 27.862 173.236H28.016V175H27.162V164.696H28.016V169.722H27.862C28.0207 169.143 28.3287 168.691 28.786 168.364C29.2527 168.028 29.8127 167.86 30.466 167.86C31.1007 167.86 31.6467 168.009 32.104 168.308C32.5707 168.597 32.93 169.013 33.182 169.554C33.4433 170.086 33.574 170.735 33.574 171.5C33.574 172.247 33.4433 172.891 33.182 173.432C32.9207 173.973 32.5567 174.389 32.09 174.678C31.6327 174.967 31.0913 175.112 30.466 175.112ZM30.34 174.384C31.0587 174.384 31.6327 174.141 32.062 173.656C32.4913 173.161 32.706 172.443 32.706 171.5C32.706 170.557 32.4913 169.839 32.062 169.344C31.6327 168.84 31.0587 168.588 30.34 168.588C29.6307 168.588 29.0613 168.835 28.632 169.33C28.212 169.825 28.002 170.543 28.002 171.486C28.002 172.429 28.212 173.147 28.632 173.642C29.0613 174.137 29.6307 174.384 30.34 174.384ZM35.0295 178.178L34.8195 177.436C35.2581 177.333 35.6221 177.207 35.9115 177.058C36.2008 176.918 36.4435 176.731 36.6395 176.498C36.8355 176.265 37.0081 175.975 37.1575 175.63L37.5215 174.79L37.5075 175.168L34.4415 167.986H35.3935L38.0675 174.468H37.7175L40.3635 167.986H41.2875L38.0395 175.672C37.8621 176.101 37.6661 176.456 37.4515 176.736C37.2461 177.025 37.0221 177.263 36.7795 177.45C36.5368 177.646 36.2708 177.8 35.9815 177.912C35.6921 178.024 35.3748 178.113 35.0295 178.178ZM49.1033 175.112C48.4406 175.112 47.8619 174.967 47.3673 174.678C46.8726 174.379 46.4899 173.955 46.2193 173.404C45.9579 172.853 45.8273 172.2 45.8273 171.444C45.8273 170.688 45.9626 170.044 46.2333 169.512C46.5039 168.971 46.8819 168.56 47.3673 168.28C47.8619 168 48.4406 167.86 49.1033 167.86C49.5513 167.86 49.9806 167.944 50.3913 168.112C50.8113 168.28 51.1566 168.513 51.4273 168.812L51.0773 169.442C50.7879 169.153 50.4753 168.943 50.1393 168.812C49.8033 168.672 49.4673 168.602 49.1313 168.602C48.3659 168.602 47.7686 168.845 47.3393 169.33C46.9099 169.815 46.6953 170.525 46.6953 171.458C46.6953 172.391 46.9099 173.115 47.3393 173.628C47.7686 174.132 48.3659 174.384 49.1313 174.384C49.4486 174.384 49.7753 174.319 50.1113 174.188C50.4566 174.057 50.7786 173.843 51.0773 173.544L51.4273 174.174C51.1473 174.473 50.7926 174.706 50.3633 174.874C49.9433 175.033 49.5233 175.112 49.1033 175.112ZM53.1382 175V169.624C53.1382 169.353 53.1289 169.083 53.1102 168.812C53.1009 168.532 53.0776 168.257 53.0402 167.986H53.8802L53.9922 169.596L53.8242 169.61C53.9176 169.218 54.0856 168.896 54.3282 168.644C54.5709 168.383 54.8509 168.187 55.1682 168.056C55.4856 167.925 55.8122 167.86 56.1482 167.86C56.2696 167.86 56.3816 167.869 56.4842 167.888C56.5962 167.897 56.6989 167.916 56.7922 167.944L56.7642 168.714C56.6522 168.677 56.5402 168.653 56.4282 168.644C56.3162 168.635 56.1949 168.63 56.0642 168.63C55.6442 168.63 55.2756 168.733 54.9582 168.938C54.6502 169.143 54.4122 169.405 54.2442 169.722C54.0762 170.039 53.9922 170.361 53.9922 170.688V175H53.1382ZM60.9611 175.112C59.8971 175.112 59.0524 174.795 58.4271 174.16C57.8111 173.525 57.5031 172.643 57.5031 171.514C57.5031 170.767 57.6384 170.123 57.9091 169.582C58.1891 169.041 58.5764 168.621 59.0711 168.322C59.5657 168.014 60.1397 167.86 60.7931 167.86C61.4184 167.86 61.9457 167.995 62.3751 168.266C62.8044 168.527 63.1357 168.905 63.3691 169.4C63.6024 169.885 63.7191 170.464 63.7191 171.136V171.528H58.1191V170.912H63.1871L62.9491 171.094C62.9491 170.301 62.7671 169.68 62.4031 169.232C62.0391 168.775 61.4977 168.546 60.7791 168.546C60.0137 168.546 59.4164 168.812 58.9871 169.344C58.5577 169.867 58.3431 170.562 58.3431 171.43V171.528C58.3431 172.461 58.5717 173.171 59.0291 173.656C59.4957 174.141 60.1444 174.384 60.9751 174.384C61.4044 174.384 61.8057 174.319 62.1791 174.188C62.5524 174.057 62.9117 173.833 63.2571 173.516L63.6071 174.146C63.3084 174.454 62.9211 174.692 62.4451 174.86C61.9691 175.028 61.4744 175.112 60.9611 175.112ZM68.2126 175.112C67.578 175.112 67.0273 174.967 66.5606 174.678C66.094 174.389 65.7346 173.973 65.4826 173.432C65.2306 172.891 65.1046 172.242 65.1046 171.486C65.1046 170.73 65.2306 170.086 65.4826 169.554C65.744 169.013 66.108 168.597 66.5746 168.308C67.0413 168.009 67.5873 167.86 68.2126 167.86C68.8566 167.86 69.412 168.028 69.8786 168.364C70.3546 168.7 70.6673 169.157 70.8166 169.736H70.6486L70.7886 167.986H71.6146C71.5866 168.257 71.5586 168.523 71.5306 168.784C71.512 169.045 71.5026 169.302 71.5026 169.554V175H70.6486V173.25H70.8026C70.6533 173.829 70.3406 174.286 69.8646 174.622C69.398 174.949 68.8473 175.112 68.2126 175.112ZM68.3246 174.384C69.0433 174.384 69.6126 174.137 70.0326 173.642C70.4526 173.147 70.6626 172.429 70.6626 171.486C70.6626 170.543 70.4526 169.825 70.0326 169.33C69.6126 168.835 69.0433 168.588 68.3246 168.588C67.606 168.588 67.032 168.835 66.6026 169.33C66.1826 169.825 65.9726 170.543 65.9726 171.486C65.9726 172.429 66.1826 173.147 66.6026 173.642C67.032 174.137 67.606 174.384 68.3246 174.384ZM76.0921 175.112C75.4668 175.112 74.9861 174.925 74.6501 174.552C74.3234 174.179 74.1601 173.605 74.1601 172.83V168.672H72.7601V167.986H74.1601V166.026L75.0141 165.746V167.986H77.0861V168.672H75.0141V172.704C75.0141 173.292 75.1074 173.717 75.2941 173.978C75.4808 174.239 75.7794 174.37 76.1901 174.37C76.3768 174.37 76.5401 174.351 76.6801 174.314C76.8294 174.277 76.9554 174.235 77.0581 174.188V174.944C76.9461 174.991 76.8014 175.028 76.6241 175.056C76.4468 175.093 76.2694 175.112 76.0921 175.112ZM78.5409 175V167.986H79.3949V175H78.5409ZM78.4009 166.264V165.2H79.5489V166.264H78.4009ZM81.7265 175V169.554C81.7265 169.302 81.7171 169.045 81.6985 168.784C81.6798 168.523 81.6518 168.257 81.6145 167.986H82.4545L82.5805 169.596H82.4125C82.6178 169.036 82.9491 168.607 83.4065 168.308C83.8638 168.009 84.3958 167.86 85.0025 167.86C85.8331 167.86 86.4585 168.079 86.8785 168.518C87.3078 168.957 87.5225 169.643 87.5225 170.576V175H86.6685V170.646C86.6685 169.927 86.5238 169.409 86.2345 169.092C85.9451 168.765 85.4971 168.602 84.8905 168.602C84.1811 168.602 83.6165 168.817 83.1965 169.246C82.7858 169.675 82.5805 170.254 82.5805 170.982V175H81.7265ZM92.8442 178.122C92.2562 178.122 91.7055 178.043 91.1922 177.884C90.6882 177.725 90.2355 177.487 89.8342 177.17L90.1422 176.512C90.4409 176.727 90.7255 176.895 90.9962 177.016C91.2762 177.147 91.5655 177.24 91.8642 177.296C92.1629 177.361 92.4849 177.394 92.8302 177.394C93.5395 177.394 94.0762 177.203 94.4402 176.82C94.8042 176.447 94.9862 175.905 94.9862 175.196V172.97H95.1402C94.9909 173.558 94.6782 174.02 94.2022 174.356C93.7262 174.683 93.1662 174.846 92.5222 174.846C91.8782 174.846 91.3182 174.706 90.8422 174.426C90.3755 174.137 90.0115 173.731 89.7502 173.208C89.4982 172.676 89.3722 172.055 89.3722 171.346C89.3722 170.637 89.4982 170.021 89.7502 169.498C90.0115 168.975 90.3755 168.574 90.8422 168.294C91.3182 168.005 91.8782 167.86 92.5222 167.86C93.1662 167.86 93.7262 168.028 94.2022 168.364C94.6782 168.691 94.9909 169.153 95.1402 169.75L94.9862 169.596L95.1122 167.986H95.9522C95.9149 168.257 95.8869 168.523 95.8682 168.784C95.8495 169.045 95.8402 169.302 95.8402 169.554V175.07C95.8402 176.078 95.5835 176.839 95.0702 177.352C94.5662 177.865 93.8242 178.122 92.8442 178.122ZM92.6202 174.118C93.3482 174.118 93.9222 173.875 94.3422 173.39C94.7715 172.905 94.9862 172.223 94.9862 171.346C94.9862 170.478 94.7715 169.801 94.3422 169.316C93.9222 168.831 93.3482 168.588 92.6202 168.588C91.8922 168.588 91.3135 168.831 90.8842 169.316C90.4549 169.801 90.2402 170.478 90.2402 171.346C90.2402 172.223 90.4549 172.905 90.8842 173.39C91.3135 173.875 91.8922 174.118 92.6202 174.118ZM104.375 175.112C103.74 175.112 103.189 174.967 102.723 174.678C102.256 174.389 101.897 173.973 101.645 173.432C101.393 172.891 101.267 172.242 101.267 171.486C101.267 170.73 101.393 170.086 101.645 169.554C101.906 169.013 102.27 168.597 102.737 168.308C103.203 168.009 103.749 167.86 104.375 167.86C105.019 167.86 105.574 168.028 106.041 168.364C106.517 168.7 106.829 169.157 106.979 169.736H106.811L106.951 167.986H107.777C107.749 168.257 107.721 168.523 107.693 168.784C107.674 169.045 107.665 169.302 107.665 169.554V175H106.811V173.25H106.965C106.815 173.829 106.503 174.286 106.027 174.622C105.56 174.949 105.009 175.112 104.375 175.112ZM104.487 174.384C105.205 174.384 105.775 174.137 106.195 173.642C106.615 173.147 106.825 172.429 106.825 171.486C106.825 170.543 106.615 169.825 106.195 169.33C105.775 168.835 105.205 168.588 104.487 168.588C103.768 168.588 103.194 168.835 102.765 169.33C102.345 169.825 102.135 170.543 102.135 171.486C102.135 172.429 102.345 173.147 102.765 173.642C103.194 174.137 103.768 174.384 104.487 174.384ZM113.891 175V168.672H112.491V167.986H114.101L113.891 168.21V166.992C113.891 166.245 114.077 165.667 114.451 165.256C114.824 164.845 115.356 164.64 116.047 164.64C116.224 164.64 116.406 164.659 116.593 164.696C116.779 164.724 116.933 164.761 117.055 164.808V165.564C116.943 165.517 116.807 165.475 116.649 165.438C116.49 165.401 116.322 165.382 116.145 165.382C115.837 165.382 115.575 165.447 115.361 165.578C115.155 165.709 114.997 165.9 114.885 166.152C114.782 166.395 114.731 166.707 114.731 167.09V168.21L114.591 167.986H116.747V168.672H114.745V175H113.891ZM118.08 175V169.624C118.08 169.353 118.07 169.083 118.052 168.812C118.042 168.532 118.019 168.257 117.982 167.986H118.822L118.934 169.596L118.766 169.61C118.859 169.218 119.027 168.896 119.27 168.644C119.512 168.383 119.792 168.187 120.11 168.056C120.427 167.925 120.754 167.86 121.09 167.86C121.211 167.86 121.323 167.869 121.426 167.888C121.538 167.897 121.64 167.916 121.734 167.944L121.706 168.714C121.594 168.677 121.482 168.653 121.37 168.644C121.258 168.635 121.136 168.63 121.006 168.63C120.586 168.63 120.217 168.733 119.9 168.938C119.592 169.143 119.354 169.405 119.186 169.722C119.018 170.039 118.934 170.361 118.934 170.688V175H118.08ZM125.902 175.112C124.838 175.112 123.994 174.795 123.368 174.16C122.752 173.525 122.444 172.643 122.444 171.514C122.444 170.767 122.58 170.123 122.85 169.582C123.13 169.041 123.518 168.621 124.012 168.322C124.507 168.014 125.081 167.86 125.734 167.86C126.36 167.86 126.887 167.995 127.316 168.266C127.746 168.527 128.077 168.905 128.31 169.4C128.544 169.885 128.66 170.464 128.66 171.136V171.528H123.06V170.912H128.128L127.89 171.094C127.89 170.301 127.708 169.68 127.344 169.232C126.98 168.775 126.439 168.546 125.72 168.546C124.955 168.546 124.358 168.812 123.928 169.344C123.499 169.867 123.284 170.562 123.284 171.43V171.528C123.284 172.461 123.513 173.171 123.97 173.656C124.437 174.141 125.086 174.384 125.916 174.384C126.346 174.384 126.747 174.319 127.12 174.188C127.494 174.057 127.853 173.833 128.198 173.516L128.548 174.146C128.25 174.454 127.862 174.692 127.386 174.86C126.91 175.028 126.416 175.112 125.902 175.112ZM133.504 175.112C132.44 175.112 131.595 174.795 130.97 174.16C130.354 173.525 130.046 172.643 130.046 171.514C130.046 170.767 130.181 170.123 130.452 169.582C130.732 169.041 131.119 168.621 131.614 168.322C132.109 168.014 132.683 167.86 133.336 167.86C133.961 167.86 134.489 167.995 134.918 168.266C135.347 168.527 135.679 168.905 135.912 169.4C136.145 169.885 136.262 170.464 136.262 171.136V171.528H130.662V170.912H135.73L135.492 171.094C135.492 170.301 135.31 169.68 134.946 169.232C134.582 168.775 134.041 168.546 133.322 168.546C132.557 168.546 131.959 168.812 131.53 169.344C131.101 169.867 130.886 170.562 130.886 171.43V171.528C130.886 172.461 131.115 173.171 131.572 173.656C132.039 174.141 132.687 174.384 133.518 174.384C133.947 174.384 134.349 174.319 134.722 174.188C135.095 174.057 135.455 173.833 135.8 173.516L136.15 174.146C135.851 174.454 135.464 174.692 134.988 174.86C134.512 175.028 134.017 175.112 133.504 175.112ZM144.324 175.112C143.689 175.112 143.139 174.967 142.672 174.678C142.205 174.389 141.846 173.973 141.594 173.432C141.342 172.891 141.216 172.242 141.216 171.486C141.216 170.73 141.342 170.086 141.594 169.554C141.855 169.013 142.219 168.597 142.686 168.308C143.153 168.009 143.699 167.86 144.324 167.86C144.968 167.86 145.523 168.028 145.99 168.364C146.466 168.7 146.779 169.157 146.928 169.736H146.76L146.9 167.986H147.726C147.698 168.257 147.67 168.523 147.642 168.784C147.623 169.045 147.614 169.302 147.614 169.554V175H146.76V173.25H146.914C146.765 173.829 146.452 174.286 145.976 174.622C145.509 174.949 144.959 175.112 144.324 175.112ZM144.436 174.384C145.155 174.384 145.724 174.137 146.144 173.642C146.564 173.147 146.774 172.429 146.774 171.486C146.774 170.543 146.564 169.825 146.144 169.33C145.724 168.835 145.155 168.588 144.436 168.588C143.717 168.588 143.143 168.835 142.714 169.33C142.294 169.825 142.084 170.543 142.084 171.486C142.084 172.429 142.294 173.147 142.714 173.642C143.143 174.137 143.717 174.384 144.436 174.384ZM152.763 175.112C152.101 175.112 151.522 174.967 151.027 174.678C150.533 174.379 150.15 173.955 149.879 173.404C149.618 172.853 149.487 172.2 149.487 171.444C149.487 170.688 149.623 170.044 149.893 169.512C150.164 168.971 150.542 168.56 151.027 168.28C151.522 168 152.101 167.86 152.763 167.86C153.211 167.86 153.641 167.944 154.051 168.112C154.471 168.28 154.817 168.513 155.087 168.812L154.737 169.442C154.448 169.153 154.135 168.943 153.799 168.812C153.463 168.672 153.127 168.602 152.791 168.602C152.026 168.602 151.429 168.845 150.999 169.33C150.57 169.815 150.355 170.525 150.355 171.458C150.355 172.391 150.57 173.115 150.999 173.628C151.429 174.132 152.026 174.384 152.791 174.384C153.109 174.384 153.435 174.319 153.771 174.188C154.117 174.057 154.439 173.843 154.737 173.544L155.087 174.174C154.807 174.473 154.453 174.706 154.023 174.874C153.603 175.033 153.183 175.112 152.763 175.112ZM159.504 175.112C158.841 175.112 158.262 174.967 157.768 174.678C157.273 174.379 156.89 173.955 156.62 173.404C156.358 172.853 156.228 172.2 156.228 171.444C156.228 170.688 156.363 170.044 156.634 169.512C156.904 168.971 157.282 168.56 157.768 168.28C158.262 168 158.841 167.86 159.504 167.86C159.952 167.86 160.381 167.944 160.792 168.112C161.212 168.28 161.557 168.513 161.828 168.812L161.478 169.442C161.188 169.153 160.876 168.943 160.54 168.812C160.204 168.672 159.868 168.602 159.532 168.602C158.766 168.602 158.169 168.845 157.74 169.33C157.31 169.815 157.096 170.525 157.096 171.458C157.096 172.391 157.31 173.115 157.74 173.628C158.169 174.132 158.766 174.384 159.532 174.384C159.849 174.384 160.176 174.319 160.512 174.188C160.857 174.057 161.179 173.843 161.478 173.544L161.828 174.174C161.548 174.473 161.193 174.706 160.764 174.874C160.344 175.033 159.924 175.112 159.504 175.112ZM166.188 175.112C165.525 175.112 164.951 174.967 164.466 174.678C163.99 174.389 163.621 173.973 163.36 173.432C163.099 172.891 162.968 172.242 162.968 171.486C162.968 170.739 163.099 170.095 163.36 169.554C163.621 169.013 163.99 168.597 164.466 168.308C164.951 168.009 165.525 167.86 166.188 167.86C166.841 167.86 167.406 168.009 167.882 168.308C168.367 168.597 168.741 169.013 169.002 169.554C169.273 170.095 169.408 170.739 169.408 171.486C169.408 172.242 169.273 172.891 169.002 173.432C168.741 173.973 168.367 174.389 167.882 174.678C167.406 174.967 166.841 175.112 166.188 175.112ZM166.188 174.384C166.897 174.384 167.467 174.137 167.896 173.642C168.325 173.147 168.54 172.429 168.54 171.486C168.54 170.543 168.325 169.825 167.896 169.33C167.467 168.835 166.897 168.588 166.188 168.588C165.469 168.588 164.895 168.835 164.466 169.33C164.046 169.825 163.836 170.543 163.836 171.486C163.836 172.429 164.046 173.147 164.466 173.642C164.895 174.137 165.469 174.384 166.188 174.384ZM173.741 175.112C172.92 175.112 172.295 174.893 171.865 174.454C171.445 174.006 171.235 173.32 171.235 172.396V167.986H172.089V172.34C172.089 173.049 172.234 173.567 172.523 173.894C172.813 174.221 173.256 174.384 173.853 174.384C174.516 174.384 175.048 174.169 175.449 173.74C175.86 173.301 176.065 172.723 176.065 172.004V167.986H176.919V175H176.079V173.348H176.261C176.065 173.917 175.743 174.356 175.295 174.664C174.857 174.963 174.339 175.112 173.741 175.112ZM179.248 175V169.554C179.248 169.302 179.239 169.045 179.22 168.784C179.201 168.523 179.173 168.257 179.136 167.986H179.976L180.102 169.596H179.934C180.139 169.036 180.471 168.607 180.928 168.308C181.385 168.009 181.917 167.86 182.524 167.86C183.355 167.86 183.98 168.079 184.4 168.518C184.829 168.957 185.044 169.643 185.044 170.576V175H184.19V170.646C184.19 169.927 184.045 169.409 183.756 169.092C183.467 168.765 183.019 168.602 182.412 168.602C181.703 168.602 181.138 168.817 180.718 169.246C180.307 169.675 180.102 170.254 180.102 170.982V175H179.248ZM189.61 175.112C188.984 175.112 188.504 174.925 188.168 174.552C187.841 174.179 187.678 173.605 187.678 172.83V168.672H186.278V167.986H187.678V166.026L188.532 165.746V167.986H190.604V168.672H188.532V172.704C188.532 173.292 188.625 173.717 188.812 173.978C188.998 174.239 189.297 174.37 189.708 174.37C189.894 174.37 190.058 174.351 190.198 174.314C190.347 174.277 190.473 174.235 190.576 174.188V174.944C190.464 174.991 190.319 175.028 190.142 175.056C189.964 175.093 189.787 175.112 189.61 175.112ZM191.999 175V173.796H193.189V175H191.999Z" fill="#252525"/>
</svg>
