<svg width="32" height="32" viewBox="0 0 32 32" fill="none" xmlns="http://www.w3.org/2000/svg">
<path fill-rule="evenodd" clip-rule="evenodd" d="M16 32C7.16344 32 0 24.8366 0 16C0 7.16344 7.16344 0 16 0C24.8366 0 32 7.16344 32 16C32 24.8366 24.8366 32 16 32ZM16 29.0909C23.2299 29.0909 29.0909 23.2299 29.0909 16C29.0909 8.77009 23.2299 2.90909 16 2.90909C8.77009 2.90909 2.90909 8.77009 2.90909 16C2.90909 23.2299 8.77009 29.0909 16 29.0909ZM16.0005 24.7249C15.1969 24.7249 14.5455 24.0736 14.5455 23.2703C14.5455 22.467 15.1969 21.8158 16.0005 21.8158C16.8041 21.8158 17.4555 22.467 17.4555 23.2703C17.4555 24.0736 16.8041 24.7249 16.0005 24.7249ZM14.5498 7.27032H17.4598V18.9067H14.5498V7.27032Z" fill="#3D52A0"/>
</svg>
