<svg width="32" height="32" viewBox="0 0 32 32" fill="none" xmlns="http://www.w3.org/2000/svg">
<path fill-rule="evenodd" clip-rule="evenodd" d="M13.3334 24C7.44232 24 2.66669 19.2243 2.66669 13.3333C2.66669 7.44226 7.44232 2.66663 13.3334 2.66663C19.2244 2.66663 24 7.44226 24 13.3333C24 15.7982 23.1639 18.0679 21.7598 19.8742L28.9428 27.0572L27.0572 28.9428L19.8742 21.7598C18.068 23.1639 15.7983 24 13.3334 24ZM21.3334 13.3333C21.3334 17.7516 17.7516 21.3333 13.3334 21.3333C8.91508 21.3333 5.33335 17.7516 5.33335 13.3333C5.33335 8.91501 8.91508 5.33329 13.3334 5.33329C17.7516 5.33329 21.3334 8.91501 21.3334 13.3333Z" fill="#3D52A0"/>
</svg>
