<svg width="32" height="32" viewBox="0 0 32 32" fill="none" xmlns="http://www.w3.org/2000/svg">
<path fill-rule="evenodd" clip-rule="evenodd" d="M28.908 25.7173L25.6829 28.9425L21.5549 27.7925L20.3744 28.2794L18.2552 32H13.6956L11.5881 28.2667L10.4087 27.7722L6.28114 28.9079L3.05755 25.6843L4.2075 21.5564L3.72052 20.3756L0 18.2548V13.6954L3.73483 11.5879L4.22925 10.4087L3.09353 6.28114L6.3159 3.05877L10.4439 4.21032L11.6234 3.72387L13.7395 0H18.3002L20.4076 3.73483L21.5869 4.22925L25.7138 3.09372L28.9412 6.31644L27.791 10.4451L28.2776 11.6249L32.0015 13.7409V18.3017L28.267 20.4089L27.7721 21.5908L28.908 25.7173ZM24.7006 21.3941L25.9687 18.3654L29.0922 16.6028V15.4339L25.9698 13.6596L24.7199 10.6288L25.6824 7.17365L24.8549 6.34738L21.3892 7.30098L18.3637 6.03242L16.6014 2.90922H15.4324L13.6581 6.03163L10.627 7.28172L7.17125 6.31768L6.34757 7.14137L7.30098 10.6064L6.03242 13.6319L2.90922 15.3942V16.5645L6.0291 18.3429L7.27867 21.3727L6.31597 24.8285L7.14137 25.6539L10.6064 24.7005L13.6318 25.969L15.394 29.0908H16.5642L18.3411 25.971L21.3712 24.7213L24.827 25.684L25.6538 24.8572L24.7006 21.3941ZM16.0007 21.8192C12.7873 21.8192 10.1823 19.2142 10.1823 16.0007C10.1823 12.7873 12.7873 10.1823 16.0007 10.1823C19.2142 10.1823 21.8192 12.7873 21.8192 16.0007C21.8192 19.2142 19.2142 21.8192 16.0007 21.8192ZM16.0007 18.91C17.6075 18.91 18.91 17.6075 18.91 16.0007C18.91 14.394 17.6075 13.0915 16.0007 13.0915C14.394 13.0915 13.0915 14.394 13.0915 16.0007C13.0915 17.6075 14.394 18.91 16.0007 18.91Z" fill="#3D52A0"/>
</svg>
