<svg width="30" height="30" viewBox="0 0 30 30" fill="none" xmlns="http://www.w3.org/2000/svg">
<path fill-rule="evenodd" clip-rule="evenodd" d="M8.79197 7.5C9.15946 4.76899 11.8887 2.5 15 2.5C18.1113 2.5 20.8405 4.76899 21.208 7.5H24.8087C26.1894 7.5 27.3087 8.61929 27.3087 10C27.3087 10.1183 27.3003 10.2364 27.2836 10.3536L25.1407 25.3536C24.9648 26.5852 23.91 27.5 22.6659 27.5H7.33409C6.08997 27.5 5.03517 26.5852 4.85922 25.3536L2.71636 10.3536C2.5211 8.98672 3.47085 7.72039 4.83768 7.52513C4.95479 7.5084 5.07294 7.5 5.19124 7.5H8.79197ZM18.6598 7.5C18.2798 6.1726 16.7475 5 15 5C13.2524 5 11.7201 6.1726 11.3401 7.5H18.6598ZM5.19124 10H8.74997V12.5H11.25V10H18.75V12.5H21.25V10H24.8087L22.6659 25H7.33409L5.19124 10Z" fill="black"/>
</svg>
