<svg width="100" height="100" viewBox="0 0 100 100" fill="none" xmlns="http://www.w3.org/2000/svg">
<path fill-rule="evenodd" clip-rule="evenodd" d="M37.5 4.16666H62.5C67.1024 4.16666 70.8334 7.89762 70.8334 12.5V16.6667H83.3334C87.9357 16.6667 91.6667 20.3976 91.6667 25V33.3333C91.6667 37.9357 87.9357 41.6667 83.3334 41.6667H82.9995L79.1667 87.5C79.1667 92.1024 75.4358 95.8333 70.8334 95.8333H29.1667C24.5643 95.8333 20.8334 92.1024 20.8478 87.846L16.9995 41.6667H16.6667C12.0643 41.6667 8.33337 37.9357 8.33337 33.3333V25C8.33337 20.3976 12.0643 16.6667 16.6667 16.6667H29.1667V12.5C29.1667 7.89762 32.8977 4.16666 37.5 4.16666ZM16.6667 25L29.1667 25H70.8334L83.3334 25V33.3333H16.6667V25ZM25.3604 41.6667H74.6384L70.8478 87.154L70.8334 87.5H29.1667L25.3604 41.6667ZM62.5 12.5V16.6667H37.5V12.5H62.5Z" fill="black"/>
</svg>
