<svg width="56" height="55" viewBox="0 0 56 55" fill="none" xmlns="http://www.w3.org/2000/svg">
<path fill-rule="evenodd" clip-rule="evenodd" d="M28 52.7083C14.0778 52.7083 2.79169 41.4222 2.79169 27.5C2.79169 13.5778 14.0778 2.29166 28 2.29166C41.9222 2.29166 53.2084 13.5778 53.2084 27.5C53.2084 41.4222 41.9222 52.7083 28 52.7083ZM44.9572 39.244C47.2698 35.9111 48.625 31.8638 48.625 27.5C48.625 16.1091 39.3909 6.87499 28 6.87499C16.6091 6.87499 7.37502 16.1091 7.37502 27.5C7.37502 31.8638 8.73027 35.9111 11.0428 39.244C13.6211 35.8384 19.6785 34.376 27.9915 34.375C22.8642 34.371 18.8334 30.7667 18.8334 22.9167C18.8334 17.7736 22.4521 13.75 28 13.75C33.5326 13.75 37.1667 18.1536 37.1667 23.375C37.1667 30.8871 33.0871 34.3716 28.0075 34.375C36.321 34.3759 42.3788 35.8382 44.9572 39.244ZM41.6691 42.9453C40.9984 40.5335 36.1799 38.9583 28 38.9583C19.8202 38.9583 15.0017 40.5335 14.331 42.9453C17.9701 46.1683 22.7565 48.125 28 48.125C33.2435 48.125 38.03 46.1683 41.6691 42.9453ZM23.4167 22.9167C23.4167 28.117 25.2918 29.7917 28 29.7917C30.6989 29.7917 32.5834 28.1838 32.5834 23.375C32.5834 20.5114 30.7859 18.3333 28 18.3333C25.0982 18.3333 23.4167 20.2029 23.4167 22.9167Z" fill="#3D52A0"/>
</svg>
